<svg width="24" height="24" viewBox="0 0 24 24" fill="none" xmlns="http://www.w3.org/2000/svg">
<circle cx="12" cy="12" r="12" fill="#F0AC5B"/>
<path d="M9.82037 6.7082C10.5064 4.59675 13.4936 4.59675 14.1796 6.7082V6.7082C14.4864 7.65248 15.3664 8.2918 16.3593 8.2918V8.2918C18.5794 8.2918 19.5025 11.1327 17.7063 12.4377V12.4377C16.9031 13.0213 16.567 14.0557 16.8738 15V15C17.5598 17.1115 15.1432 18.8673 13.3471 17.5623V17.5623C12.5438 16.9787 11.4562 16.9787 10.6529 17.5623V17.5623C8.8568 18.8673 6.44015 17.1115 7.1262 15V15C7.43302 14.0557 7.09691 13.0213 6.29366 12.4377V12.4377C4.49755 11.1327 5.42063 8.2918 7.64074 8.2918V8.2918C8.63361 8.2918 9.51356 7.65248 9.82037 6.7082V6.7082Z" fill="white"/>
</svg>
