<svg width="272" height="419" viewBox="0 0 272 419" fill="none" xmlns="http://www.w3.org/2000/svg">
<path d="M40.9288 42.5521V39.3521H46.5288C47.2968 39.3521 47.9688 39.2028 48.5448 38.9041C49.1421 38.5841 49.6114 38.1468 49.9528 37.5921C50.2941 37.0161 50.4648 36.3441 50.4648 35.5761C50.4648 34.8081 50.2941 34.1468 49.9528 33.5921C49.6114 33.0161 49.1421 32.5788 48.5448 32.2801C47.9688 31.9601 47.2968 31.8001 46.5288 31.8001H40.9288V28.6001H46.7208C48.1288 28.6001 49.3874 28.8881 50.4968 29.4641C51.6274 30.0401 52.5128 30.8508 53.1528 31.8961C53.8141 32.9415 54.1448 34.1681 54.1448 35.5761C54.1448 36.9841 53.8141 38.2108 53.1528 39.2561C52.5128 40.3015 51.6274 41.1121 50.4968 41.6881C49.3874 42.2641 48.1288 42.5521 46.7208 42.5521H40.9288ZM38.4008 51.0001V28.6001H42.0808V51.0001H38.4008ZM57.2333 51.0001V35.6401H60.7533V51.0001H57.2333ZM60.7533 42.4561L59.5373 41.8481C59.5373 39.9068 59.9639 38.3388 60.8173 37.1441C61.6919 35.9281 63.0039 35.3201 64.7533 35.3201C65.5213 35.3201 66.2146 35.4588 66.8333 35.7361C67.4519 36.0135 68.0279 36.4615 68.5613 37.0801L66.2573 39.4481C65.9799 39.1495 65.6706 38.9361 65.3293 38.8081C64.9879 38.6801 64.5933 38.6161 64.1453 38.6161C63.1639 38.6161 62.3533 38.9255 61.7133 39.5441C61.0733 40.1628 60.7533 41.1335 60.7533 42.4561ZM76.8358 51.3201C75.3424 51.3201 73.9878 50.9681 72.7718 50.2641C71.5558 49.5388 70.5851 48.5681 69.8598 47.3521C69.1558 46.1361 68.8038 44.7815 68.8038 43.2881C68.8038 41.7948 69.1558 40.4508 69.8598 39.2561C70.5851 38.0615 71.5558 37.1121 72.7718 36.4081C73.9878 35.6828 75.3424 35.3201 76.8358 35.3201C78.3504 35.3201 79.7158 35.6721 80.9318 36.3761C82.1478 37.0801 83.1078 38.0401 83.8118 39.2561C84.5371 40.4508 84.8998 41.7948 84.8998 43.2881C84.8998 44.7815 84.5371 46.1361 83.8118 47.3521C83.1078 48.5681 82.1478 49.5388 80.9318 50.2641C79.7158 50.9681 78.3504 51.3201 76.8358 51.3201ZM76.8358 47.9281C77.7104 47.9281 78.4784 47.7361 79.1398 47.3521C79.8224 46.9468 80.3451 46.3921 80.7078 45.6881C81.0918 44.9841 81.2838 44.1841 81.2838 43.2881C81.2838 42.3921 81.0918 41.6028 80.7078 40.9201C80.3238 40.2375 79.8011 39.7041 79.1398 39.3201C78.4784 38.9148 77.7104 38.7121 76.8358 38.7121C75.9824 38.7121 75.2144 38.9148 74.5318 39.3201C73.8704 39.7041 73.3478 40.2375 72.9638 40.9201C72.6011 41.6028 72.4198 42.3921 72.4198 43.2881C72.4198 44.1841 72.6011 44.9841 72.9638 45.6881C73.3478 46.3921 73.8704 46.9468 74.5318 47.3521C75.2144 47.7361 75.9824 47.9281 76.8358 47.9281ZM94.259 51.3201C92.8723 51.3201 91.6137 50.9681 90.483 50.2641C89.3737 49.5601 88.4883 48.6108 87.827 47.4161C87.187 46.2001 86.867 44.8455 86.867 43.3521C86.867 41.8375 87.187 40.4828 87.827 39.2881C88.4883 38.0721 89.3737 37.1121 90.483 36.4081C91.6137 35.6828 92.8723 35.3201 94.259 35.3201C95.4323 35.3201 96.467 35.5761 97.363 36.0881C98.2803 36.5788 99.0057 37.2615 99.539 38.1361C100.072 39.0108 100.339 40.0028 100.339 41.1121V45.5281C100.339 46.6375 100.072 47.6295 99.539 48.5041C99.027 49.3788 98.3123 50.0721 97.395 50.5841C96.4777 51.0748 95.4323 51.3201 94.259 51.3201ZM94.835 47.9921C95.7097 47.9921 96.467 47.8001 97.107 47.4161C97.7683 47.0108 98.2803 46.4561 98.643 45.7521C99.0057 45.0481 99.187 44.2375 99.187 43.3201C99.187 42.4028 99.0057 41.5921 98.643 40.8881C98.2803 40.1841 97.7683 39.6401 97.107 39.2561C96.467 38.8508 95.7097 38.6481 94.835 38.6481C93.9817 38.6481 93.2243 38.8508 92.563 39.2561C91.923 39.6401 91.411 40.1841 91.027 40.8881C90.6643 41.5921 90.483 42.4028 90.483 43.3201C90.483 44.2375 90.6643 45.0481 91.027 45.7521C91.411 46.4561 91.923 47.0108 92.563 47.4161C93.2243 47.8001 93.9817 47.9921 94.835 47.9921ZM102.483 51.0001H98.963V46.8721L99.571 43.1281L98.963 39.4161V27.9601H102.483V51.0001ZM112.694 51.3201C111.392 51.3201 110.23 51.0321 109.206 50.4561C108.203 49.8801 107.414 49.0908 106.838 48.0881C106.283 47.0641 106.006 45.8908 106.006 44.5681V35.6401H109.526V44.4081C109.526 45.1548 109.643 45.7948 109.878 46.3281C110.134 46.8401 110.496 47.2348 110.966 47.5121C111.456 47.7895 112.032 47.9281 112.694 47.9281C113.718 47.9281 114.496 47.6295 115.03 47.0321C115.584 46.4135 115.862 45.5388 115.862 44.4081V35.6401H119.382V44.5681C119.382 45.9121 119.094 47.0961 118.518 48.1201C117.963 49.1228 117.184 49.9121 116.182 50.4881C115.179 51.0428 114.016 51.3201 112.694 51.3201ZM129.993 51.3201C128.478 51.3201 127.102 50.9681 125.865 50.2641C124.649 49.5601 123.689 48.6001 122.985 47.3841C122.281 46.1681 121.929 44.8135 121.929 43.3201C121.929 41.8055 122.281 40.4508 122.985 39.2561C123.689 38.0401 124.649 37.0801 125.865 36.3761C127.102 35.6721 128.478 35.3201 129.993 35.3201C131.187 35.3201 132.297 35.5548 133.321 36.0241C134.366 36.4721 135.251 37.1228 135.977 37.9761L133.673 40.3121C133.225 39.7788 132.681 39.3841 132.041 39.1281C131.422 38.8508 130.739 38.7121 129.993 38.7121C129.118 38.7121 128.339 38.9148 127.657 39.3201C126.995 39.7041 126.473 40.2375 126.089 40.9201C125.726 41.6028 125.545 42.4028 125.545 43.3201C125.545 44.2161 125.726 45.0161 126.089 45.7201C126.473 46.4028 126.995 46.9468 127.657 47.3521C128.339 47.7361 129.118 47.9281 129.993 47.9281C130.739 47.9281 131.422 47.8001 132.041 47.5441C132.681 47.2668 133.225 46.8615 133.673 46.3281L135.977 48.6641C135.251 49.5175 134.366 50.1788 133.321 50.6481C132.297 51.0961 131.187 51.3201 129.993 51.3201ZM140.601 51.0001V29.2401H144.121V51.0001H140.601ZM136.921 38.8401V35.6401H147.801V38.8401H136.921ZM150.39 51.0001V35.6401H153.91V51.0001H150.39ZM152.15 32.8241C151.553 32.8241 151.052 32.6215 150.646 32.2161C150.262 31.8108 150.07 31.3095 150.07 30.7121C150.07 30.1148 150.262 29.6135 150.646 29.2081C151.052 28.8028 151.553 28.6001 152.15 28.6001C152.769 28.6001 153.27 28.8028 153.654 29.2081C154.038 29.6135 154.23 30.1148 154.23 30.7121C154.23 31.3095 154.038 31.8108 153.654 32.2161C153.27 32.6215 152.769 32.8241 152.15 32.8241ZM163.042 51.0001L156.034 35.6401H159.938L165.282 48.1521H162.978L168.354 35.6401H172.098L165.09 51.0001H163.042ZM174.203 51.0001V35.6401H177.723V51.0001H174.203ZM175.963 32.8241C175.365 32.8241 174.864 32.6215 174.459 32.2161C174.075 31.8108 173.883 31.3095 173.883 30.7121C173.883 30.1148 174.075 29.6135 174.459 29.2081C174.864 28.8028 175.365 28.6001 175.963 28.6001C176.581 28.6001 177.083 28.8028 177.467 29.2081C177.851 29.6135 178.043 30.1148 178.043 30.7121C178.043 31.3095 177.851 31.8108 177.467 32.2161C177.083 32.6215 176.581 32.8241 175.963 32.8241ZM184.007 51.0001V29.2401H187.527V51.0001H184.007ZM180.327 38.8401V35.6401H191.207V38.8401H180.327ZM198.725 51.1601L192.165 35.6401H196.036L200.517 47.0321H199.397L204.133 35.6401H208.037L200.901 51.1601H198.725ZM194.149 57.4001L198.917 47.5761L200.901 51.1601L198.053 57.4001H194.149ZM216.765 51.0001V35.6401H220.285V51.0001H216.765ZM218.525 32.8241C217.928 32.8241 217.427 32.6215 217.021 32.2161C216.637 31.8108 216.445 31.3095 216.445 30.7121C216.445 30.1148 216.637 29.6135 217.021 29.2081C217.427 28.8028 217.928 28.6001 218.525 28.6001C219.144 28.6001 219.645 28.8028 220.029 29.2081C220.413 29.6135 220.605 30.1148 220.605 30.7121C220.605 31.3095 220.413 31.8108 220.029 32.2161C219.645 32.6215 219.144 32.8241 218.525 32.8241ZM229.257 51.3201C228.404 51.3201 227.583 51.2135 226.793 51.0001C226.004 50.7655 225.279 50.4455 224.617 50.0401C223.956 49.6135 223.38 49.1015 222.889 48.5041L225.129 46.2641C225.663 46.8828 226.271 47.3521 226.953 47.6721C227.657 47.9708 228.447 48.1201 229.321 48.1201C230.111 48.1201 230.708 48.0028 231.113 47.7681C231.519 47.5335 231.721 47.1921 231.721 46.7441C231.721 46.2748 231.529 45.9121 231.145 45.6561C230.761 45.4001 230.26 45.1868 229.641 45.0161C229.044 44.8241 228.404 44.6321 227.721 44.4401C227.06 44.2481 226.42 43.9921 225.801 43.6721C225.204 43.3308 224.713 42.8721 224.329 42.2961C223.945 41.7201 223.753 40.9735 223.753 40.0561C223.753 39.0748 223.977 38.2321 224.425 37.5281C224.895 36.8241 225.545 36.2801 226.377 35.8961C227.231 35.5121 228.244 35.3201 229.417 35.3201C230.655 35.3201 231.743 35.5441 232.681 35.9921C233.641 36.4188 234.441 37.0695 235.081 37.9441L232.841 40.1841C232.393 39.6295 231.881 39.2135 231.305 38.9361C230.729 38.6588 230.068 38.5201 229.321 38.5201C228.617 38.5201 228.073 38.6268 227.689 38.8401C227.305 39.0535 227.113 39.3628 227.113 39.7681C227.113 40.1948 227.305 40.5255 227.689 40.7601C228.073 40.9948 228.564 41.1975 229.161 41.3681C229.78 41.5388 230.42 41.7308 231.081 41.9441C231.764 42.1361 232.404 42.4135 233.001 42.7761C233.62 43.1175 234.121 43.5868 234.505 44.1841C234.889 44.7601 235.081 45.5175 235.081 46.4561C235.081 47.9495 234.559 49.1335 233.513 50.0081C232.468 50.8828 231.049 51.3201 229.257 51.3201ZM86.7144 91.0001V82.1361C86.7144 81.1121 86.3837 80.2695 85.7224 79.6081C85.0824 78.9468 84.2504 78.6161 83.2264 78.6161C82.5437 78.6161 81.9357 78.7655 81.4024 79.0641C80.869 79.3628 80.453 79.7788 80.1544 80.3121C79.8557 80.8455 79.7064 81.4535 79.7064 82.1361L78.3304 81.3681C78.3304 80.1948 78.5864 79.1601 79.0984 78.2641C79.6104 77.3468 80.3144 76.6321 81.2104 76.1201C82.1277 75.5868 83.1517 75.3201 84.2824 75.3201C85.4344 75.3201 86.4584 75.6188 87.3544 76.2161C88.2504 76.7921 88.9544 77.5495 89.4664 78.4881C89.9784 79.4055 90.2344 80.3655 90.2344 81.3681V91.0001H86.7144ZM76.1864 91.0001V75.6401H79.7064V91.0001H76.1864ZM100.947 91.3201C99.4114 91.3201 98.0247 90.9788 96.7874 90.2961C95.5714 89.5921 94.6007 88.6321 93.8754 87.4161C93.1714 86.2001 92.8194 84.8348 92.8194 83.3201C92.8194 81.8055 93.1714 80.4508 93.8754 79.2561C94.5794 78.0401 95.5287 77.0801 96.7234 76.3761C97.9394 75.6721 99.2834 75.3201 100.755 75.3201C102.185 75.3201 103.443 75.6508 104.531 76.3121C105.641 76.9735 106.505 77.8801 107.123 79.0321C107.763 80.1841 108.083 81.4961 108.083 82.9681C108.083 83.2241 108.062 83.4908 108.019 83.7681C107.998 84.0241 107.955 84.3121 107.891 84.6321H95.2834V81.7521H106.067L104.755 82.9041C104.713 81.9655 104.531 81.1761 104.211 80.5361C103.891 79.8961 103.433 79.4055 102.835 79.0641C102.259 78.7228 101.545 78.5521 100.691 78.5521C99.7954 78.5521 99.0167 78.7441 98.3554 79.1281C97.694 79.5121 97.182 80.0561 96.8194 80.7601C96.4567 81.4428 96.2754 82.2641 96.2754 83.2241C96.2754 84.1841 96.4674 85.0268 96.8514 85.7521C97.2354 86.4775 97.7794 87.0428 98.4834 87.4481C99.1874 87.8321 99.998 88.0241 100.915 88.0241C101.705 88.0241 102.43 87.8855 103.091 87.6081C103.774 87.3308 104.35 86.9255 104.819 86.3921L107.059 88.6641C106.313 89.5388 105.406 90.2001 104.339 90.6481C103.273 91.0961 102.142 91.3201 100.947 91.3201ZM115.839 91.0001L108.831 75.6401H112.735L118.079 88.1521H115.775L121.151 75.6401H124.895L117.887 91.0001H115.839ZM133.572 91.3201C132.036 91.3201 130.65 90.9788 129.412 90.2961C128.196 89.5921 127.226 88.6321 126.5 87.4161C125.796 86.2001 125.444 84.8348 125.444 83.3201C125.444 81.8055 125.796 80.4508 126.5 79.2561C127.204 78.0401 128.154 77.0801 129.348 76.3761C130.564 75.6721 131.908 75.3201 133.38 75.3201C134.81 75.3201 136.068 75.6508 137.156 76.3121C138.266 76.9735 139.13 77.8801 139.748 79.0321C140.388 80.1841 140.708 81.4961 140.708 82.9681C140.708 83.2241 140.687 83.4908 140.644 83.7681C140.623 84.0241 140.58 84.3121 140.516 84.6321H127.908V81.7521H138.692L137.38 82.9041C137.338 81.9655 137.156 81.1761 136.836 80.5361C136.516 79.8961 136.058 79.4055 135.46 79.0641C134.884 78.7228 134.17 78.5521 133.316 78.5521C132.42 78.5521 131.642 78.7441 130.98 79.1281C130.319 79.5121 129.807 80.0561 129.444 80.7601C129.082 81.4428 128.9 82.2641 128.9 83.2241C128.9 84.1841 129.092 85.0268 129.476 85.7521C129.86 86.4775 130.404 87.0428 131.108 87.4481C131.812 87.8321 132.623 88.0241 133.54 88.0241C134.33 88.0241 135.055 87.8855 135.716 87.6081C136.399 87.3308 136.975 86.9255 137.444 86.3921L139.684 88.6641C138.938 89.5388 138.031 90.2001 136.964 90.6481C135.898 91.0961 134.767 91.3201 133.572 91.3201ZM143.53 91.0001V75.6401H147.05V91.0001H143.53ZM147.05 82.4561L145.834 81.8481C145.834 79.9068 146.261 78.3388 147.114 77.1441C147.989 75.9281 149.301 75.3201 151.05 75.3201C151.818 75.3201 152.511 75.4588 153.13 75.7361C153.749 76.0135 154.325 76.4615 154.858 77.0801L152.554 79.4481C152.277 79.1495 151.967 78.9361 151.626 78.8081C151.285 78.6801 150.89 78.6161 150.442 78.6161C149.461 78.6161 148.65 78.9255 148.01 79.5441C147.37 80.1628 147.05 81.1335 147.05 82.4561ZM169.962 91.3201C168.575 91.3201 167.317 90.9681 166.186 90.2641C165.077 89.5601 164.191 88.6108 163.53 87.4161C162.89 86.2001 162.57 84.8455 162.57 83.3521C162.57 81.8375 162.89 80.4828 163.53 79.2881C164.191 78.0721 165.077 77.1121 166.186 76.4081C167.317 75.6828 168.575 75.3201 169.962 75.3201C171.135 75.3201 172.17 75.5761 173.066 76.0881C173.983 76.5788 174.709 77.2615 175.242 78.1361C175.775 79.0108 176.042 80.0028 176.042 81.1121V85.5281C176.042 86.6375 175.775 87.6295 175.242 88.5041C174.73 89.3788 174.015 90.0721 173.098 90.5841C172.181 91.0748 171.135 91.3201 169.962 91.3201ZM170.538 87.9921C171.839 87.9921 172.885 87.5548 173.674 86.6801C174.485 85.8055 174.89 84.6855 174.89 83.3201C174.89 82.4028 174.709 81.5921 174.346 80.8881C173.983 80.1841 173.471 79.6401 172.81 79.2561C172.17 78.8508 171.413 78.6481 170.538 78.6481C169.685 78.6481 168.927 78.8508 168.266 79.2561C167.626 79.6401 167.114 80.1841 166.73 80.8881C166.367 81.5921 166.186 82.4028 166.186 83.3201C166.186 84.2375 166.367 85.0481 166.73 85.7521C167.114 86.4561 167.626 87.0108 168.266 87.4161C168.927 87.8001 169.685 87.9921 170.538 87.9921ZM174.666 91.0001V86.8721L175.274 83.1281L174.666 79.4161V75.6401H178.186V91.0001H174.666ZM192.621 91.0001V82.1361C192.621 81.1121 192.29 80.2695 191.629 79.6081C190.989 78.9468 190.157 78.6161 189.133 78.6161C188.45 78.6161 187.842 78.7655 187.309 79.0641C186.775 79.3628 186.359 79.7788 186.061 80.3121C185.762 80.8455 185.613 81.4535 185.613 82.1361L184.237 81.3681C184.237 80.1948 184.493 79.1601 185.005 78.2641C185.517 77.3468 186.221 76.6321 187.117 76.1201C188.034 75.5868 189.058 75.3201 190.189 75.3201C191.341 75.3201 192.365 75.6188 193.261 76.2161C194.157 76.7921 194.861 77.5495 195.373 78.4881C195.885 79.4055 196.141 80.3655 196.141 81.3681V91.0001H192.621ZM182.093 91.0001V75.6401H185.613V91.0001H182.093ZM51.884 131.32C50.4973 131.32 49.2387 130.968 48.108 130.264C46.9987 129.56 46.1133 128.611 45.452 127.416C44.812 126.2 44.492 124.845 44.492 123.352C44.492 121.837 44.812 120.483 45.452 119.288C46.1133 118.072 46.9987 117.112 48.108 116.408C49.2387 115.683 50.4973 115.32 51.884 115.32C53.0573 115.32 54.092 115.576 54.988 116.088C55.9053 116.579 56.6307 117.261 57.164 118.136C57.6973 119.011 57.964 120.003 57.964 121.112V125.528C57.964 126.637 57.6973 127.629 57.164 128.504C56.652 129.379 55.9373 130.072 55.02 130.584C54.1027 131.075 53.0573 131.32 51.884 131.32ZM52.46 127.992C53.7613 127.992 54.8067 127.555 55.596 126.68C56.4067 125.805 56.812 124.685 56.812 123.32C56.812 122.403 56.6307 121.592 56.268 120.888C55.9053 120.184 55.3933 119.64 54.732 119.256C54.092 118.851 53.3347 118.648 52.46 118.648C51.6067 118.648 50.8493 118.851 50.188 119.256C49.548 119.64 49.036 120.184 48.652 120.888C48.2893 121.592 48.108 122.403 48.108 123.32C48.108 124.237 48.2893 125.048 48.652 125.752C49.036 126.456 49.548 127.011 50.188 127.416C50.8493 127.8 51.6067 127.992 52.46 127.992ZM56.588 131V126.872L57.196 123.128L56.588 119.416V115.64H60.108V131H56.588ZM71.0865 131.32C69.5718 131.32 68.1958 130.968 66.9585 130.264C65.7425 129.56 64.7825 128.6 64.0785 127.384C63.3745 126.168 63.0225 124.813 63.0225 123.32C63.0225 121.805 63.3745 120.451 64.0785 119.256C64.7825 118.04 65.7425 117.08 66.9585 116.376C68.1958 115.672 69.5718 115.32 71.0865 115.32C72.2812 115.32 73.3905 115.555 74.4145 116.024C75.4598 116.472 76.3452 117.123 77.0705 117.976L74.7665 120.312C74.3185 119.779 73.7745 119.384 73.1345 119.128C72.5158 118.851 71.8332 118.712 71.0865 118.712C70.2118 118.712 69.4332 118.915 68.7505 119.32C68.0892 119.704 67.5665 120.237 67.1825 120.92C66.8198 121.603 66.6385 122.403 66.6385 123.32C66.6385 124.216 66.8198 125.016 67.1825 125.72C67.5665 126.403 68.0892 126.947 68.7505 127.352C69.4332 127.736 70.2118 127.928 71.0865 127.928C71.8332 127.928 72.5158 127.8 73.1345 127.544C73.7745 127.267 74.3185 126.861 74.7665 126.328L77.0705 128.664C76.3452 129.517 75.4598 130.179 74.4145 130.648C73.3905 131.096 72.2812 131.32 71.0865 131.32ZM86.3678 131.32C84.8531 131.32 83.4771 130.968 82.2398 130.264C81.0238 129.56 80.0638 128.6 79.3598 127.384C78.6558 126.168 78.3038 124.813 78.3038 123.32C78.3038 121.805 78.6558 120.451 79.3598 119.256C80.0638 118.04 81.0238 117.08 82.2398 116.376C83.4771 115.672 84.8531 115.32 86.3678 115.32C87.5624 115.32 88.6718 115.555 89.6958 116.024C90.7411 116.472 91.6264 117.123 92.3518 117.976L90.0478 120.312C89.5998 119.779 89.0558 119.384 88.4158 119.128C87.7971 118.851 87.1144 118.712 86.3678 118.712C85.4931 118.712 84.7144 118.915 84.0318 119.32C83.3704 119.704 82.8478 120.237 82.4638 120.92C82.1011 121.603 81.9198 122.403 81.9198 123.32C81.9198 124.216 82.1011 125.016 82.4638 125.72C82.8478 126.403 83.3704 126.947 84.0318 127.352C84.7144 127.736 85.4931 127.928 86.3678 127.928C87.1144 127.928 87.7971 127.8 88.4158 127.544C89.0558 127.267 89.5998 126.861 90.0478 126.328L92.3518 128.664C91.6264 129.517 90.7411 130.179 89.6958 130.648C88.6718 131.096 87.5624 131.32 86.3678 131.32ZM94.9215 131V115.64H98.4415V131H94.9215ZM96.6815 112.824C96.0842 112.824 95.5828 112.621 95.1775 112.216C94.7935 111.811 94.6015 111.309 94.6015 110.712C94.6015 110.115 94.7935 109.613 95.1775 109.208C95.5828 108.803 96.0842 108.6 96.6815 108.6C97.3002 108.6 97.8015 108.803 98.1855 109.208C98.5695 109.613 98.7615 110.115 98.7615 110.712C98.7615 111.309 98.5695 111.811 98.1855 112.216C97.8015 112.621 97.3002 112.824 96.6815 112.824ZM108.822 131.32C107.435 131.32 106.176 130.968 105.046 130.264C103.936 129.56 103.051 128.611 102.39 127.416C101.75 126.2 101.43 124.845 101.43 123.352C101.43 121.837 101.75 120.483 102.39 119.288C103.051 118.072 103.936 117.112 105.046 116.408C106.176 115.683 107.435 115.32 108.822 115.32C109.995 115.32 111.03 115.576 111.926 116.088C112.843 116.579 113.568 117.261 114.102 118.136C114.635 119.011 114.902 120.003 114.902 121.112V125.528C114.902 126.637 114.635 127.629 114.102 128.504C113.59 129.379 112.875 130.072 111.958 130.584C111.04 131.075 109.995 131.32 108.822 131.32ZM109.398 127.992C110.272 127.992 111.03 127.8 111.67 127.416C112.331 127.011 112.843 126.456 113.206 125.752C113.568 125.048 113.75 124.237 113.75 123.32C113.75 122.403 113.568 121.592 113.206 120.888C112.843 120.184 112.331 119.64 111.67 119.256C111.03 118.851 110.272 118.648 109.398 118.648C108.544 118.648 107.787 118.851 107.126 119.256C106.486 119.64 105.974 120.184 105.59 120.888C105.227 121.592 105.046 122.403 105.046 123.32C105.046 124.237 105.227 125.048 105.59 125.752C105.974 126.456 106.486 127.011 107.126 127.416C107.787 127.8 108.544 127.992 109.398 127.992ZM117.046 131H113.526V126.872L114.134 123.128L113.526 119.416V107.96H117.046V131ZM128.088 131.32C126.552 131.32 125.165 130.979 123.928 130.296C122.712 129.592 121.741 128.632 121.016 127.416C120.312 126.2 119.96 124.835 119.96 123.32C119.96 121.805 120.312 120.451 121.016 119.256C121.72 118.04 122.669 117.08 123.864 116.376C125.08 115.672 126.424 115.32 127.896 115.32C129.325 115.32 130.584 115.651 131.672 116.312C132.781 116.973 133.645 117.88 134.264 119.032C134.904 120.184 135.224 121.496 135.224 122.968C135.224 123.224 135.203 123.491 135.16 123.768C135.139 124.024 135.096 124.312 135.032 124.632H122.424V121.752H133.208L131.896 122.904C131.853 121.965 131.672 121.176 131.352 120.536C131.032 119.896 130.573 119.405 129.976 119.064C129.4 118.723 128.685 118.552 127.832 118.552C126.936 118.552 126.157 118.744 125.496 119.128C124.835 119.512 124.323 120.056 123.96 120.76C123.597 121.443 123.416 122.264 123.416 123.224C123.416 124.184 123.608 125.027 123.992 125.752C124.376 126.477 124.92 127.043 125.624 127.448C126.328 127.832 127.139 128.024 128.056 128.024C128.845 128.024 129.571 127.885 130.232 127.608C130.915 127.331 131.491 126.925 131.96 126.392L134.2 128.664C133.453 129.539 132.547 130.2 131.48 130.648C130.413 131.096 129.283 131.32 128.088 131.32ZM148.574 131V122.136C148.574 121.112 148.243 120.269 147.582 119.608C146.942 118.947 146.11 118.616 145.086 118.616C144.403 118.616 143.795 118.765 143.262 119.064C142.728 119.363 142.312 119.779 142.014 120.312C141.715 120.845 141.566 121.453 141.566 122.136L140.19 121.368C140.19 120.195 140.446 119.16 140.958 118.264C141.47 117.347 142.174 116.632 143.07 116.12C143.987 115.587 145.011 115.32 146.142 115.32C147.294 115.32 148.318 115.619 149.214 116.216C150.11 116.792 150.814 117.549 151.326 118.488C151.838 119.405 152.094 120.365 152.094 121.368V131H148.574ZM138.046 131V115.64H141.566V131H138.046ZM157.819 131V109.24H161.339V131H157.819ZM154.139 118.84V115.64H165.019V118.84H154.139ZM169.171 131.32C168.489 131.32 167.923 131.096 167.475 130.648C167.049 130.179 166.835 129.613 166.835 128.952C166.835 128.269 167.049 127.704 167.475 127.256C167.923 126.808 168.489 126.584 169.171 126.584C169.854 126.584 170.409 126.808 170.835 127.256C171.283 127.704 171.507 128.269 171.507 128.952C171.507 129.613 171.283 130.179 170.835 130.648C170.409 131.096 169.854 131.32 169.171 131.32ZM182.651 131V108.6H186.331V131H182.651ZM193.038 131V109.24H196.558V131H193.038ZM189.358 118.84V115.64H200.238V118.84H189.358ZM209.234 131V115.64H212.754V131H209.234ZM210.994 112.824C210.397 112.824 209.895 112.621 209.49 112.216C209.106 111.811 208.914 111.309 208.914 110.712C208.914 110.115 209.106 109.613 209.49 109.208C209.895 108.803 210.397 108.6 210.994 108.6C211.613 108.6 212.114 108.803 212.498 109.208C212.882 109.613 213.074 110.115 213.074 110.712C213.074 111.309 212.882 111.811 212.498 112.216C212.114 112.621 211.613 112.824 210.994 112.824ZM221.726 131.32C220.873 131.32 220.051 131.213 219.262 131C218.473 130.765 217.747 130.445 217.086 130.04C216.425 129.613 215.849 129.101 215.358 128.504L217.598 126.264C218.131 126.883 218.739 127.352 219.422 127.672C220.126 127.971 220.915 128.12 221.79 128.12C222.579 128.12 223.177 128.003 223.582 127.768C223.987 127.533 224.19 127.192 224.19 126.744C224.19 126.275 223.998 125.912 223.614 125.656C223.23 125.4 222.729 125.187 222.11 125.016C221.513 124.824 220.873 124.632 220.19 124.44C219.529 124.248 218.889 123.992 218.27 123.672C217.673 123.331 217.182 122.872 216.798 122.296C216.414 121.72 216.222 120.973 216.222 120.056C216.222 119.075 216.446 118.232 216.894 117.528C217.363 116.824 218.014 116.28 218.846 115.896C219.699 115.512 220.713 115.32 221.886 115.32C223.123 115.32 224.211 115.544 225.15 115.992C226.11 116.419 226.91 117.069 227.55 117.944L225.31 120.184C224.862 119.629 224.35 119.213 223.774 118.936C223.198 118.659 222.537 118.52 221.79 118.52C221.086 118.52 220.542 118.627 220.158 118.84C219.774 119.053 219.582 119.363 219.582 119.768C219.582 120.195 219.774 120.525 220.158 120.76C220.542 120.995 221.033 121.197 221.63 121.368C222.249 121.539 222.889 121.731 223.55 121.944C224.233 122.136 224.873 122.413 225.47 122.776C226.089 123.117 226.59 123.587 226.974 124.184C227.358 124.76 227.55 125.517 227.55 126.456C227.55 127.949 227.027 129.133 225.982 130.008C224.937 130.883 223.518 131.32 221.726 131.32ZM25.8059 171.32C24.4192 171.32 23.1605 170.968 22.0299 170.264C20.9205 169.56 20.0352 168.611 19.3739 167.416C18.7339 166.2 18.4139 164.845 18.4139 163.352C18.4139 161.837 18.7339 160.483 19.3739 159.288C20.0352 158.072 20.9205 157.112 22.0299 156.408C23.1605 155.683 24.4192 155.32 25.8059 155.32C26.9792 155.32 28.0139 155.576 28.9099 156.088C29.8272 156.579 30.5525 157.261 31.0859 158.136C31.6192 159.011 31.8859 160.003 31.8859 161.112V165.528C31.8859 166.637 31.6192 167.629 31.0859 168.504C30.5739 169.379 29.8592 170.072 28.9419 170.584C28.0245 171.075 26.9792 171.32 25.8059 171.32ZM26.3819 167.992C27.6832 167.992 28.7285 167.555 29.5179 166.68C30.3285 165.805 30.7339 164.685 30.7339 163.32C30.7339 162.403 30.5525 161.592 30.1899 160.888C29.8272 160.184 29.3152 159.64 28.6539 159.256C28.0139 158.851 27.2565 158.648 26.3819 158.648C25.5285 158.648 24.7712 158.851 24.1099 159.256C23.4699 159.64 22.9579 160.184 22.5739 160.888C22.2112 161.592 22.0299 162.403 22.0299 163.32C22.0299 164.237 22.2112 165.048 22.5739 165.752C22.9579 166.456 23.4699 167.011 24.1099 167.416C24.7712 167.8 25.5285 167.992 26.3819 167.992ZM30.5099 171V166.872L31.1179 163.128L30.5099 159.416V155.64H34.0299V171H30.5099ZM37.9364 171V147.96H41.4564V171H37.9364ZM49.8539 171L43.6779 155.64H47.3259L51.4859 166.808L50.3979 166.84L54.4619 155.64H56.5099L60.5739 166.84L59.4859 166.808L63.6459 155.64H67.2939L61.1179 171H59.0699L54.9099 160.376H56.0619L51.9019 171H49.8539ZM75.5559 171.32C74.1692 171.32 72.9105 170.968 71.7799 170.264C70.6705 169.56 69.7852 168.611 69.1239 167.416C68.4839 166.2 68.1639 164.845 68.1639 163.352C68.1639 161.837 68.4839 160.483 69.1239 159.288C69.7852 158.072 70.6705 157.112 71.7799 156.408C72.9105 155.683 74.1692 155.32 75.5559 155.32C76.7292 155.32 77.7639 155.576 78.6599 156.088C79.5772 156.579 80.3025 157.261 80.8359 158.136C81.3692 159.011 81.6359 160.003 81.6359 161.112V165.528C81.6359 166.637 81.3692 167.629 80.8359 168.504C80.3239 169.379 79.6092 170.072 78.6919 170.584C77.7745 171.075 76.7292 171.32 75.5559 171.32ZM76.1319 167.992C77.4332 167.992 78.4785 167.555 79.2679 166.68C80.0785 165.805 80.4839 164.685 80.4839 163.32C80.4839 162.403 80.3025 161.592 79.9399 160.888C79.5772 160.184 79.0652 159.64 78.4039 159.256C77.7639 158.851 77.0065 158.648 76.1319 158.648C75.2785 158.648 74.5212 158.851 73.8599 159.256C73.2199 159.64 72.7079 160.184 72.3239 160.888C71.9612 161.592 71.7799 162.403 71.7799 163.32C71.7799 164.237 71.9612 165.048 72.3239 165.752C72.7079 166.456 73.2199 167.011 73.8599 167.416C74.5212 167.8 75.2785 167.992 76.1319 167.992ZM80.2599 171V166.872L80.8679 163.128L80.2599 159.416V155.64H83.7799V171H80.2599ZM92.6464 171.16L86.0864 155.64H89.9584L94.4384 167.032H93.3184L98.0544 155.64H101.958L94.8224 171.16H92.6464ZM88.0704 177.4L92.8384 167.576L94.8224 171.16L91.9744 177.4H88.0704ZM108.71 171.32C107.857 171.32 107.036 171.213 106.246 171C105.457 170.765 104.732 170.445 104.07 170.04C103.409 169.613 102.833 169.101 102.342 168.504L104.582 166.264C105.116 166.883 105.724 167.352 106.406 167.672C107.11 167.971 107.9 168.12 108.774 168.12C109.564 168.12 110.161 168.003 110.566 167.768C110.972 167.533 111.174 167.192 111.174 166.744C111.174 166.275 110.982 165.912 110.598 165.656C110.214 165.4 109.713 165.187 109.094 165.016C108.497 164.824 107.857 164.632 107.174 164.44C106.513 164.248 105.873 163.992 105.254 163.672C104.657 163.331 104.166 162.872 103.782 162.296C103.398 161.72 103.206 160.973 103.206 160.056C103.206 159.075 103.43 158.232 103.878 157.528C104.348 156.824 104.998 156.28 105.83 155.896C106.684 155.512 107.697 155.32 108.87 155.32C110.108 155.32 111.196 155.544 112.134 155.992C113.094 156.419 113.894 157.069 114.534 157.944L112.294 160.184C111.846 159.629 111.334 159.213 110.758 158.936C110.182 158.659 109.521 158.52 108.774 158.52C108.07 158.52 107.526 158.627 107.142 158.84C106.758 159.053 106.566 159.363 106.566 159.768C106.566 160.195 106.758 160.525 107.142 160.76C107.526 160.995 108.017 161.197 108.614 161.368C109.233 161.539 109.873 161.731 110.534 161.944C111.217 162.136 111.857 162.413 112.454 162.776C113.073 163.117 113.574 163.587 113.958 164.184C114.342 164.76 114.534 165.517 114.534 166.456C114.534 167.949 114.012 169.133 112.966 170.008C111.921 170.883 110.502 171.32 108.71 171.32ZM126.179 171V149.24H129.699V171H126.179ZM122.499 158.84V155.64H133.379V158.84H122.499ZM146.464 171V162.136C146.464 161.112 146.134 160.269 145.472 159.608C144.832 158.947 144 158.616 142.976 158.616C142.294 158.616 141.686 158.765 141.152 159.064C140.619 159.363 140.203 159.779 139.904 160.312C139.606 160.845 139.456 161.453 139.456 162.136L138.08 161.368C138.08 160.195 138.336 159.16 138.848 158.264C139.36 157.347 140.064 156.632 140.96 156.12C141.878 155.587 142.902 155.32 144.032 155.32C145.184 155.32 146.208 155.576 147.104 156.088C148 156.6 148.704 157.315 149.216 158.232C149.728 159.128 149.984 160.173 149.984 161.368V171H146.464ZM135.936 171V147.96H139.456V171H135.936ZM160.697 171.32C159.161 171.32 157.775 170.979 156.537 170.296C155.321 169.592 154.351 168.632 153.625 167.416C152.921 166.2 152.569 164.835 152.569 163.32C152.569 161.805 152.921 160.451 153.625 159.256C154.329 158.04 155.279 157.08 156.473 156.376C157.689 155.672 159.033 155.32 160.505 155.32C161.935 155.32 163.193 155.651 164.281 156.312C165.391 156.973 166.255 157.88 166.873 159.032C167.513 160.184 167.833 161.496 167.833 162.968C167.833 163.224 167.812 163.491 167.769 163.768C167.748 164.024 167.705 164.312 167.641 164.632H155.033V161.752H165.817L164.505 162.904C164.463 161.965 164.281 161.176 163.961 160.536C163.641 159.896 163.183 159.405 162.585 159.064C162.009 158.723 161.295 158.552 160.441 158.552C159.545 158.552 158.767 158.744 158.105 159.128C157.444 159.512 156.932 160.056 156.569 160.76C156.207 161.443 156.025 162.264 156.025 163.224C156.025 164.184 156.217 165.027 156.601 165.752C156.985 166.477 157.529 167.043 158.233 167.448C158.937 167.832 159.748 168.024 160.665 168.024C161.455 168.024 162.18 167.885 162.841 167.608C163.524 167.331 164.1 166.925 164.569 166.392L166.809 168.664C166.063 169.539 165.156 170.2 164.089 170.648C163.023 171.096 161.892 171.32 160.697 171.32ZM177.061 171V155.64H180.581V171H177.061ZM180.581 162.456L179.365 161.848C179.365 159.907 179.792 158.339 180.645 157.144C181.52 155.928 182.832 155.32 184.581 155.32C185.349 155.32 186.043 155.459 186.661 155.736C187.28 156.013 187.856 156.461 188.389 157.08L186.085 159.448C185.808 159.149 185.499 158.936 185.157 158.808C184.816 158.68 184.421 158.616 183.973 158.616C182.992 158.616 182.181 158.925 181.541 159.544C180.901 160.163 180.581 161.133 180.581 162.456ZM196.76 171.32C195.224 171.32 193.837 170.979 192.6 170.296C191.384 169.592 190.413 168.632 189.688 167.416C188.984 166.2 188.632 164.835 188.632 163.32C188.632 161.805 188.984 160.451 189.688 159.256C190.392 158.04 191.341 157.08 192.536 156.376C193.752 155.672 195.096 155.32 196.568 155.32C197.997 155.32 199.256 155.651 200.344 156.312C201.453 156.973 202.317 157.88 202.936 159.032C203.576 160.184 203.896 161.496 203.896 162.968C203.896 163.224 203.875 163.491 203.832 163.768C203.811 164.024 203.768 164.312 203.704 164.632H191.096V161.752H201.88L200.568 162.904C200.525 161.965 200.344 161.176 200.024 160.536C199.704 159.896 199.245 159.405 198.648 159.064C198.072 158.723 197.357 158.552 196.504 158.552C195.608 158.552 194.829 158.744 194.168 159.128C193.507 159.512 192.995 160.056 192.632 160.76C192.269 161.443 192.088 162.264 192.088 163.224C192.088 164.184 192.28 165.027 192.664 165.752C193.048 166.477 193.592 167.043 194.296 167.448C195 167.832 195.811 168.024 196.728 168.024C197.517 168.024 198.243 167.885 198.904 167.608C199.587 167.331 200.163 166.925 200.632 166.392L202.872 168.664C202.125 169.539 201.219 170.2 200.152 170.648C199.085 171.096 197.955 171.32 196.76 171.32ZM211.742 171.32C210.888 171.32 210.067 171.213 209.278 171C208.488 170.765 207.763 170.445 207.102 170.04C206.44 169.613 205.864 169.101 205.374 168.504L207.614 166.264C208.147 166.883 208.755 167.352 209.438 167.672C210.142 167.971 210.931 168.12 211.806 168.12C212.595 168.12 213.192 168.003 213.598 167.768C214.003 167.533 214.206 167.192 214.206 166.744C214.206 166.275 214.014 165.912 213.63 165.656C213.246 165.4 212.744 165.187 212.126 165.016C211.528 164.824 210.888 164.632 210.206 164.44C209.544 164.248 208.904 163.992 208.286 163.672C207.688 163.331 207.198 162.872 206.814 162.296C206.43 161.72 206.238 160.973 206.238 160.056C206.238 159.075 206.462 158.232 206.91 157.528C207.379 156.824 208.03 156.28 208.862 155.896C209.715 155.512 210.728 155.32 211.902 155.32C213.139 155.32 214.227 155.544 215.166 155.992C216.126 156.419 216.926 157.069 217.566 157.944L215.326 160.184C214.878 159.629 214.366 159.213 213.79 158.936C213.214 158.659 212.552 158.52 211.806 158.52C211.102 158.52 210.558 158.627 210.174 158.84C209.79 159.053 209.598 159.363 209.598 159.768C209.598 160.195 209.79 160.525 210.174 160.76C210.558 160.995 211.048 161.197 211.646 161.368C212.264 161.539 212.904 161.731 213.566 161.944C214.248 162.136 214.888 162.413 215.486 162.776C216.104 163.117 216.606 163.587 216.99 164.184C217.374 164.76 217.566 165.517 217.566 166.456C217.566 167.949 217.043 169.133 215.998 170.008C214.952 170.883 213.534 171.32 211.742 171.32ZM226.772 171.32C225.47 171.32 224.308 171.032 223.284 170.456C222.281 169.88 221.492 169.091 220.916 168.088C220.361 167.064 220.084 165.891 220.084 164.568V155.64H223.604V164.408C223.604 165.155 223.721 165.795 223.956 166.328C224.212 166.84 224.574 167.235 225.044 167.512C225.534 167.789 226.11 167.928 226.772 167.928C227.796 167.928 228.574 167.629 229.108 167.032C229.662 166.413 229.94 165.539 229.94 164.408V155.64H233.46V164.568C233.46 165.912 233.172 167.096 232.596 168.12C232.041 169.123 231.262 169.912 230.26 170.488C229.257 171.043 228.094 171.32 226.772 171.32ZM236.999 171V147.96H240.519V171H236.999ZM246.772 171V149.24H250.292V171H246.772ZM243.092 158.84V155.64H253.972V158.84H243.092ZM22.9451 211.32C21.4518 211.32 20.0971 210.968 18.8811 210.264C17.6651 209.539 16.6945 208.568 15.9691 207.352C15.2651 206.136 14.9131 204.781 14.9131 203.288C14.9131 201.795 15.2651 200.451 15.9691 199.256C16.6945 198.061 17.6651 197.112 18.8811 196.408C20.0971 195.683 21.4518 195.32 22.9451 195.32C24.4598 195.32 25.8251 195.672 27.0411 196.376C28.2571 197.08 29.2171 198.04 29.9211 199.256C30.6465 200.451 31.0091 201.795 31.0091 203.288C31.0091 204.781 30.6465 206.136 29.9211 207.352C29.2171 208.568 28.2571 209.539 27.0411 210.264C25.8251 210.968 24.4598 211.32 22.9451 211.32ZM22.9451 207.928C23.8198 207.928 24.5878 207.736 25.2491 207.352C25.9318 206.947 26.4545 206.392 26.8171 205.688C27.2011 204.984 27.3931 204.184 27.3931 203.288C27.3931 202.392 27.2011 201.603 26.8171 200.92C26.4331 200.237 25.9105 199.704 25.2491 199.32C24.5878 198.915 23.8198 198.712 22.9451 198.712C22.0918 198.712 21.3238 198.915 20.6411 199.32C19.9798 199.704 19.4571 200.237 19.0731 200.92C18.7105 201.603 18.5291 202.392 18.5291 203.288C18.5291 204.184 18.7105 204.984 19.0731 205.688C19.4571 206.392 19.9798 206.947 20.6411 207.352C21.3238 207.736 22.0918 207.928 22.9451 207.928ZM35.6109 211V193.624C35.6109 192.451 35.8669 191.416 36.3789 190.52C36.9122 189.624 37.6375 188.92 38.5549 188.408C39.4935 187.896 40.5709 187.64 41.7869 187.64C42.7255 187.64 43.5255 187.8 44.1869 188.12C44.8482 188.44 45.4669 188.899 46.0429 189.496L43.7709 191.768C43.5149 191.512 43.2375 191.309 42.9389 191.16C42.6402 191.011 42.2562 190.936 41.7869 190.936C40.9335 190.936 40.2722 191.171 39.8029 191.64C39.3549 192.088 39.1309 192.739 39.1309 193.592V211H35.6109ZM31.9309 198.84V195.64H43.7709V198.84H31.9309ZM59.2434 211.32C57.8567 211.32 56.598 210.968 55.4674 210.264C54.358 209.56 53.4727 208.611 52.8114 207.416C52.1714 206.2 51.8514 204.845 51.8514 203.352C51.8514 201.837 52.1714 200.483 52.8114 199.288C53.4727 198.072 54.358 197.112 55.4674 196.408C56.598 195.683 57.8567 195.32 59.2434 195.32C60.4167 195.32 61.4514 195.576 62.3474 196.088C63.2647 196.579 63.99 197.261 64.5234 198.136C65.0567 199.011 65.3234 200.003 65.3234 201.112V205.528C65.3234 206.637 65.0567 207.629 64.5234 208.504C64.0114 209.379 63.2967 210.072 62.3794 210.584C61.462 211.075 60.4167 211.32 59.2434 211.32ZM59.8194 207.992C61.1207 207.992 62.166 207.555 62.9554 206.68C63.766 205.805 64.1714 204.685 64.1714 203.32C64.1714 202.403 63.99 201.592 63.6274 200.888C63.2647 200.184 62.7527 199.64 62.0914 199.256C61.4514 198.851 60.694 198.648 59.8194 198.648C58.966 198.648 58.2087 198.851 57.5474 199.256C56.9074 199.64 56.3954 200.184 56.0114 200.888C55.6487 201.592 55.4674 202.403 55.4674 203.32C55.4674 204.237 55.6487 205.048 56.0114 205.752C56.3954 206.456 56.9074 207.011 57.5474 207.416C58.2087 207.8 58.966 207.992 59.8194 207.992ZM63.9474 211V206.872L64.5554 203.128L63.9474 199.416V195.64H67.4674V211H63.9474ZM84.8521 211.32C83.3375 211.32 81.9615 210.968 80.7241 210.264C79.5081 209.56 78.5481 208.6 77.8441 207.384C77.1401 206.168 76.7881 204.813 76.7881 203.32C76.7881 201.805 77.1401 200.451 77.8441 199.256C78.5481 198.04 79.5081 197.08 80.7241 196.376C81.9615 195.672 83.3375 195.32 84.8521 195.32C86.0468 195.32 87.1561 195.555 88.1801 196.024C89.2255 196.472 90.1108 197.123 90.8361 197.976L88.5321 200.312C88.0841 199.779 87.5401 199.384 86.9001 199.128C86.2815 198.851 85.5988 198.712 84.8521 198.712C83.9775 198.712 83.1988 198.915 82.5161 199.32C81.8548 199.704 81.3321 200.237 80.9481 200.92C80.5855 201.603 80.4041 202.403 80.4041 203.32C80.4041 204.216 80.5855 205.016 80.9481 205.72C81.3321 206.403 81.8548 206.947 82.5161 207.352C83.1988 207.736 83.9775 207.928 84.8521 207.928C85.5988 207.928 86.2815 207.8 86.9001 207.544C87.5401 207.267 88.0841 206.861 88.5321 206.328L90.8361 208.664C90.1108 209.517 89.2255 210.179 88.1801 210.648C87.1561 211.096 86.0468 211.32 84.8521 211.32ZM100.101 211.32C98.608 211.32 97.2534 210.968 96.0374 210.264C94.8214 209.539 93.8507 208.568 93.1254 207.352C92.4214 206.136 92.0694 204.781 92.0694 203.288C92.0694 201.795 92.4214 200.451 93.1254 199.256C93.8507 198.061 94.8214 197.112 96.0374 196.408C97.2534 195.683 98.608 195.32 100.101 195.32C101.616 195.32 102.981 195.672 104.197 196.376C105.413 197.08 106.373 198.04 107.077 199.256C107.803 200.451 108.165 201.795 108.165 203.288C108.165 204.781 107.803 206.136 107.077 207.352C106.373 208.568 105.413 209.539 104.197 210.264C102.981 210.968 101.616 211.32 100.101 211.32ZM100.101 207.928C100.976 207.928 101.744 207.736 102.405 207.352C103.088 206.947 103.611 206.392 103.973 205.688C104.357 204.984 104.549 204.184 104.549 203.288C104.549 202.392 104.357 201.603 103.973 200.92C103.589 200.237 103.067 199.704 102.405 199.32C101.744 198.915 100.976 198.712 100.101 198.712C99.248 198.712 98.48 198.915 97.7974 199.32C97.136 199.704 96.6134 200.237 96.2294 200.92C95.8667 201.603 95.6854 202.392 95.6854 203.288C95.6854 204.184 95.8667 204.984 96.2294 205.688C96.6134 206.392 97.136 206.947 97.7974 207.352C98.48 207.736 99.248 207.928 100.101 207.928ZM111.093 211V195.64H114.613V211H111.093ZM121.301 211V201.848C121.301 200.824 120.981 200.035 120.341 199.48C119.701 198.904 118.911 198.616 117.973 198.616C117.333 198.616 116.757 198.744 116.245 199C115.754 199.256 115.359 199.629 115.061 200.12C114.762 200.589 114.613 201.165 114.613 201.848L113.237 201.08C113.237 199.907 113.493 198.893 114.005 198.04C114.517 197.187 115.21 196.525 116.085 196.056C116.959 195.565 117.941 195.32 119.029 195.32C120.117 195.32 121.098 195.555 121.973 196.024C122.847 196.493 123.541 197.155 124.053 198.008C124.565 198.861 124.821 199.885 124.821 201.08V211H121.301ZM131.509 211V201.848C131.509 200.824 131.189 200.035 130.549 199.48C129.909 198.904 129.119 198.616 128.181 198.616C127.562 198.616 126.997 198.744 126.485 199C125.973 199.256 125.567 199.629 125.269 200.12C124.97 200.589 124.821 201.165 124.821 201.848L122.837 201.08C122.943 199.907 123.285 198.893 123.861 198.04C124.437 197.187 125.173 196.525 126.069 196.056C126.986 195.565 127.989 195.32 129.077 195.32C130.186 195.32 131.189 195.555 132.085 196.024C132.981 196.493 133.695 197.155 134.229 198.008C134.762 198.861 135.029 199.885 135.029 201.08V211H131.509ZM138.655 211V195.64H142.175V211H138.655ZM148.863 211V201.848C148.863 200.824 148.543 200.035 147.903 199.48C147.263 198.904 146.474 198.616 145.535 198.616C144.895 198.616 144.319 198.744 143.807 199C143.316 199.256 142.922 199.629 142.623 200.12C142.324 200.589 142.175 201.165 142.175 201.848L140.799 201.08C140.799 199.907 141.055 198.893 141.567 198.04C142.079 197.187 142.772 196.525 143.647 196.056C144.522 195.565 145.503 195.32 146.591 195.32C147.679 195.32 148.66 195.555 149.535 196.024C150.41 196.493 151.103 197.155 151.615 198.008C152.127 198.861 152.383 199.885 152.383 201.08V211H148.863ZM159.071 211V201.848C159.071 200.824 158.751 200.035 158.111 199.48C157.471 198.904 156.682 198.616 155.743 198.616C155.124 198.616 154.559 198.744 154.047 199C153.535 199.256 153.13 199.629 152.831 200.12C152.532 200.589 152.383 201.165 152.383 201.848L150.399 201.08C150.506 199.907 150.847 198.893 151.423 198.04C151.999 197.187 152.735 196.525 153.631 196.056C154.548 195.565 155.551 195.32 156.639 195.32C157.748 195.32 158.751 195.555 159.647 196.024C160.543 196.493 161.258 197.155 161.791 198.008C162.324 198.861 162.591 199.885 162.591 201.08V211H159.071ZM166.25 211V195.64H169.77V211H166.25ZM168.01 192.824C167.412 192.824 166.911 192.621 166.506 192.216C166.122 191.811 165.93 191.309 165.93 190.712C165.93 190.115 166.122 189.613 166.506 189.208C166.911 188.803 167.412 188.6 168.01 188.6C168.628 188.6 169.13 188.803 169.514 189.208C169.898 189.613 170.09 190.115 170.09 190.712C170.09 191.309 169.898 191.811 169.514 192.216C169.13 192.621 168.628 192.824 168.01 192.824ZM176.054 211V189.24H179.574V211H176.054ZM172.374 198.84V195.64H183.254V198.84H172.374ZM185.811 211V195.64H189.331V211H185.811ZM196.019 211V201.848C196.019 200.824 195.699 200.035 195.059 199.48C194.419 198.904 193.63 198.616 192.691 198.616C192.051 198.616 191.475 198.744 190.963 199C190.473 199.256 190.078 199.629 189.779 200.12C189.481 200.589 189.331 201.165 189.331 201.848L187.955 201.08C187.955 199.907 188.211 198.893 188.723 198.04C189.235 197.187 189.929 196.525 190.803 196.056C191.678 195.565 192.659 195.32 193.747 195.32C194.835 195.32 195.817 195.555 196.691 196.024C197.566 196.493 198.259 197.155 198.771 198.008C199.283 198.861 199.539 199.885 199.539 201.08V211H196.019ZM206.227 211V201.848C206.227 200.824 205.907 200.035 205.267 199.48C204.627 198.904 203.838 198.616 202.899 198.616C202.281 198.616 201.715 198.744 201.203 199C200.691 199.256 200.286 199.629 199.987 200.12C199.689 200.589 199.539 201.165 199.539 201.848L197.555 201.08C197.662 199.907 198.003 198.893 198.579 198.04C199.155 197.187 199.891 196.525 200.787 196.056C201.705 195.565 202.707 195.32 203.795 195.32C204.905 195.32 205.907 195.555 206.803 196.024C207.699 196.493 208.414 197.155 208.947 198.008C209.481 198.861 209.747 199.885 209.747 201.08V211H206.227ZM220.51 211.32C218.974 211.32 217.587 210.979 216.35 210.296C215.134 209.592 214.163 208.632 213.438 207.416C212.734 206.2 212.382 204.835 212.382 203.32C212.382 201.805 212.734 200.451 213.438 199.256C214.142 198.04 215.091 197.08 216.286 196.376C217.502 195.672 218.846 195.32 220.318 195.32C221.747 195.32 223.006 195.651 224.094 196.312C225.203 196.973 226.067 197.88 226.686 199.032C227.326 200.184 227.646 201.496 227.646 202.968C227.646 203.224 227.625 203.491 227.582 203.768C227.561 204.024 227.518 204.312 227.454 204.632H214.846V201.752H225.63L224.318 202.904C224.275 201.965 224.094 201.176 223.774 200.536C223.454 199.896 222.995 199.405 222.398 199.064C221.822 198.723 221.107 198.552 220.254 198.552C219.358 198.552 218.579 198.744 217.918 199.128C217.257 199.512 216.745 200.056 216.382 200.76C216.019 201.443 215.838 202.264 215.838 203.224C215.838 204.184 216.03 205.027 216.414 205.752C216.798 206.477 217.342 207.043 218.046 207.448C218.75 207.832 219.561 208.024 220.478 208.024C221.267 208.024 221.993 207.885 222.654 207.608C223.337 207.331 223.913 206.925 224.382 206.392L226.622 208.664C225.875 209.539 224.969 210.2 223.902 210.648C222.835 211.096 221.705 211.32 220.51 211.32ZM240.996 211V202.136C240.996 201.112 240.665 200.269 240.004 199.608C239.364 198.947 238.532 198.616 237.508 198.616C236.825 198.616 236.217 198.765 235.684 199.064C235.15 199.363 234.734 199.779 234.436 200.312C234.137 200.845 233.988 201.453 233.988 202.136L232.612 201.368C232.612 200.195 232.868 199.16 233.38 198.264C233.892 197.347 234.596 196.632 235.492 196.12C236.409 195.587 237.433 195.32 238.564 195.32C239.716 195.32 240.74 195.619 241.636 196.216C242.532 196.792 243.236 197.549 243.748 198.488C244.26 199.405 244.516 200.365 244.516 201.368V211H240.996ZM230.468 211V195.64H233.988V211H230.468ZM250.241 211V189.24H253.761V211H250.241ZM246.561 198.84V195.64H257.441V198.84H246.561ZM44.3974 251V229.24H47.9174V251H44.3974ZM40.7174 238.84V235.64H51.5974V238.84H40.7174ZM60.7576 251.32C59.2643 251.32 57.9096 250.968 56.6936 250.264C55.4776 249.539 54.507 248.568 53.7816 247.352C53.0776 246.136 52.7256 244.781 52.7256 243.288C52.7256 241.795 53.0776 240.451 53.7816 239.256C54.507 238.061 55.4776 237.112 56.6936 236.408C57.9096 235.683 59.2643 235.32 60.7576 235.32C62.2723 235.32 63.6376 235.672 64.8536 236.376C66.0696 237.08 67.0296 238.04 67.7336 239.256C68.459 240.451 68.8216 241.795 68.8216 243.288C68.8216 244.781 68.459 246.136 67.7336 247.352C67.0296 248.568 66.0696 249.539 64.8536 250.264C63.6376 250.968 62.2723 251.32 60.7576 251.32ZM60.7576 247.928C61.6323 247.928 62.4003 247.736 63.0616 247.352C63.7443 246.947 64.267 246.392 64.6296 245.688C65.0136 244.984 65.2056 244.184 65.2056 243.288C65.2056 242.392 65.0136 241.603 64.6296 240.92C64.2456 240.237 63.723 239.704 63.0616 239.32C62.4003 238.915 61.6323 238.712 60.7576 238.712C59.9043 238.712 59.1363 238.915 58.4536 239.32C57.7923 239.704 57.2696 240.237 56.8856 240.92C56.523 241.603 56.3416 242.392 56.3416 243.288C56.3416 244.184 56.523 244.984 56.8856 245.688C57.2696 246.392 57.7923 246.947 58.4536 247.352C59.1363 247.736 59.9043 247.928 60.7576 247.928ZM85.2911 251.32C83.7551 251.32 82.3685 250.979 81.1311 250.296C79.9151 249.592 78.9445 248.632 78.2191 247.416C77.5151 246.2 77.1631 244.835 77.1631 243.32C77.1631 241.805 77.5151 240.451 78.2191 239.256C78.9231 238.04 79.8725 237.08 81.0671 236.376C82.2831 235.672 83.6271 235.32 85.0991 235.32C86.5285 235.32 87.7871 235.651 88.8751 236.312C89.9845 236.973 90.8485 237.88 91.4671 239.032C92.1071 240.184 92.4271 241.496 92.4271 242.968C92.4271 243.224 92.4058 243.491 92.3631 243.768C92.3418 244.024 92.2991 244.312 92.2351 244.632H79.6271V241.752H90.4111L89.0991 242.904C89.0565 241.965 88.8751 241.176 88.5551 240.536C88.2351 239.896 87.7765 239.405 87.1791 239.064C86.6031 238.723 85.8885 238.552 85.0351 238.552C84.1391 238.552 83.3605 238.744 82.6991 239.128C82.0378 239.512 81.5258 240.056 81.1631 240.76C80.8005 241.443 80.6191 242.264 80.6191 243.224C80.6191 244.184 80.8111 245.027 81.1951 245.752C81.5791 246.477 82.1231 247.043 82.8271 247.448C83.5311 247.832 84.3418 248.024 85.2591 248.024C86.0485 248.024 86.7738 247.885 87.4351 247.608C88.1178 247.331 88.6938 246.925 89.1631 246.392L91.4031 248.664C90.6565 249.539 89.7498 250.2 88.6831 250.648C87.6165 251.096 86.4858 251.32 85.2911 251.32ZM104.539 251L100.123 244.504L99.4834 243.928L93.5314 235.64H97.7874L101.723 241.336L102.331 241.88L108.763 251H104.539ZM93.2434 251L99.4514 242.392L101.499 244.92L97.3394 251H93.2434ZM102.651 243.864L100.571 241.368L104.411 235.64H108.475L102.651 243.864ZM117.727 251.32C116.212 251.32 114.836 250.968 113.599 250.264C112.383 249.56 111.423 248.6 110.719 247.384C110.015 246.168 109.663 244.813 109.663 243.32C109.663 241.805 110.015 240.451 110.719 239.256C111.423 238.04 112.383 237.08 113.599 236.376C114.836 235.672 116.212 235.32 117.727 235.32C118.922 235.32 120.031 235.555 121.055 236.024C122.1 236.472 122.986 237.123 123.711 237.976L121.407 240.312C120.959 239.779 120.415 239.384 119.775 239.128C119.156 238.851 118.474 238.712 117.727 238.712C116.852 238.712 116.074 238.915 115.391 239.32C114.73 239.704 114.207 240.237 113.823 240.92C113.46 241.603 113.279 242.403 113.279 243.32C113.279 244.216 113.46 245.016 113.823 245.72C114.207 246.403 114.73 246.947 115.391 247.352C116.074 247.736 116.852 247.928 117.727 247.928C118.474 247.928 119.156 247.8 119.775 247.544C120.415 247.267 120.959 246.861 121.407 246.328L123.711 248.664C122.986 249.517 122.1 250.179 121.055 250.648C120.031 251.096 118.922 251.32 117.727 251.32ZM133.072 251.32C131.536 251.32 130.15 250.979 128.912 250.296C127.696 249.592 126.726 248.632 126 247.416C125.296 246.2 124.944 244.835 124.944 243.32C124.944 241.805 125.296 240.451 126 239.256C126.704 238.04 127.654 237.08 128.848 236.376C130.064 235.672 131.408 235.32 132.88 235.32C134.31 235.32 135.568 235.651 136.656 236.312C137.766 236.973 138.63 237.88 139.248 239.032C139.888 240.184 140.208 241.496 140.208 242.968C140.208 243.224 140.187 243.491 140.144 243.768C140.123 244.024 140.08 244.312 140.016 244.632H127.408V241.752H138.192L136.88 242.904C136.838 241.965 136.656 241.176 136.336 240.536C136.016 239.896 135.558 239.405 134.96 239.064C134.384 238.723 133.67 238.552 132.816 238.552C131.92 238.552 131.142 238.744 130.48 239.128C129.819 239.512 129.307 240.056 128.944 240.76C128.582 241.443 128.4 242.264 128.4 243.224C128.4 244.184 128.592 245.027 128.976 245.752C129.36 246.477 129.904 247.043 130.608 247.448C131.312 247.832 132.123 248.024 133.04 248.024C133.83 248.024 134.555 247.885 135.216 247.608C135.899 247.331 136.475 246.925 136.944 246.392L139.184 248.664C138.438 249.539 137.531 250.2 136.464 250.648C135.398 251.096 134.267 251.32 133.072 251.32ZM143.03 251V227.96H146.55V251H143.03ZM150.468 251V227.96H153.988V251H150.468ZM165.041 251.32C163.505 251.32 162.118 250.979 160.881 250.296C159.665 249.592 158.694 248.632 157.969 247.416C157.265 246.2 156.913 244.835 156.913 243.32C156.913 241.805 157.265 240.451 157.969 239.256C158.673 238.04 159.622 237.08 160.817 236.376C162.033 235.672 163.377 235.32 164.849 235.32C166.278 235.32 167.537 235.651 168.625 236.312C169.734 236.973 170.598 237.88 171.217 239.032C171.857 240.184 172.177 241.496 172.177 242.968C172.177 243.224 172.156 243.491 172.113 243.768C172.092 244.024 172.049 244.312 171.985 244.632H159.377V241.752H170.161L168.849 242.904C168.806 241.965 168.625 241.176 168.305 240.536C167.985 239.896 167.526 239.405 166.929 239.064C166.353 238.723 165.638 238.552 164.785 238.552C163.889 238.552 163.11 238.744 162.449 239.128C161.788 239.512 161.276 240.056 160.913 240.76C160.55 241.443 160.369 242.264 160.369 243.224C160.369 244.184 160.561 245.027 160.945 245.752C161.329 246.477 161.873 247.043 162.577 247.448C163.281 247.832 164.092 248.024 165.009 248.024C165.798 248.024 166.524 247.885 167.185 247.608C167.868 247.331 168.444 246.925 168.913 246.392L171.153 248.664C170.406 249.539 169.5 250.2 168.433 250.648C167.366 251.096 166.236 251.32 165.041 251.32ZM185.527 251V242.136C185.527 241.112 185.196 240.269 184.535 239.608C183.895 238.947 183.063 238.616 182.039 238.616C181.356 238.616 180.748 238.765 180.215 239.064C179.682 239.363 179.266 239.779 178.967 240.312C178.668 240.845 178.519 241.453 178.519 242.136L177.143 241.368C177.143 240.195 177.399 239.16 177.911 238.264C178.423 237.347 179.127 236.632 180.023 236.12C180.94 235.587 181.964 235.32 183.095 235.32C184.247 235.32 185.271 235.619 186.167 236.216C187.063 236.792 187.767 237.549 188.279 238.488C188.791 239.405 189.047 240.365 189.047 241.368V251H185.527ZM174.999 251V235.64H178.519V251H174.999ZM199.696 251.32C198.181 251.32 196.805 250.968 195.568 250.264C194.352 249.56 193.392 248.6 192.688 247.384C191.984 246.168 191.632 244.813 191.632 243.32C191.632 241.805 191.984 240.451 192.688 239.256C193.392 238.04 194.352 237.08 195.568 236.376C196.805 235.672 198.181 235.32 199.696 235.32C200.891 235.32 202 235.555 203.024 236.024C204.069 236.472 204.955 237.123 205.68 237.976L203.376 240.312C202.928 239.779 202.384 239.384 201.744 239.128C201.125 238.851 200.443 238.712 199.696 238.712C198.821 238.712 198.043 238.915 197.36 239.32C196.699 239.704 196.176 240.237 195.792 240.92C195.429 241.603 195.248 242.403 195.248 243.32C195.248 244.216 195.429 245.016 195.792 245.72C196.176 246.403 196.699 246.947 197.36 247.352C198.043 247.736 198.821 247.928 199.696 247.928C200.443 247.928 201.125 247.8 201.744 247.544C202.384 247.267 202.928 246.861 203.376 246.328L205.68 248.664C204.955 249.517 204.069 250.179 203.024 250.648C202 251.096 200.891 251.32 199.696 251.32ZM215.041 251.32C213.505 251.32 212.118 250.979 210.881 250.296C209.665 249.592 208.694 248.632 207.969 247.416C207.265 246.2 206.913 244.835 206.913 243.32C206.913 241.805 207.265 240.451 207.969 239.256C208.673 238.04 209.622 237.08 210.817 236.376C212.033 235.672 213.377 235.32 214.849 235.32C216.278 235.32 217.537 235.651 218.625 236.312C219.734 236.973 220.598 237.88 221.217 239.032C221.857 240.184 222.177 241.496 222.177 242.968C222.177 243.224 222.156 243.491 222.113 243.768C222.092 244.024 222.049 244.312 221.985 244.632H209.377V241.752H220.161L218.849 242.904C218.806 241.965 218.625 241.176 218.305 240.536C217.985 239.896 217.526 239.405 216.929 239.064C216.353 238.723 215.638 238.552 214.785 238.552C213.889 238.552 213.11 238.744 212.449 239.128C211.788 239.512 211.276 240.056 210.913 240.76C210.55 241.443 210.369 242.264 210.369 243.224C210.369 244.184 210.561 245.027 210.945 245.752C211.329 246.477 211.873 247.043 212.577 247.448C213.281 247.832 214.092 248.024 215.009 248.024C215.798 248.024 216.524 247.885 217.185 247.608C217.868 247.331 218.444 246.925 218.913 246.392L221.153 248.664C220.406 249.539 219.5 250.2 218.433 250.648C217.366 251.096 216.236 251.32 215.041 251.32ZM224.999 254.744L227.175 250.68L228.359 250.36C228.231 250.616 228.082 250.829 227.911 251C227.74 251.171 227.538 251.256 227.303 251.256C226.812 251.256 226.354 251.053 225.927 250.648C225.522 250.221 225.319 249.688 225.319 249.048C225.319 248.365 225.543 247.789 225.991 247.32C226.46 246.829 227.036 246.584 227.719 246.584C228.359 246.584 228.914 246.829 229.383 247.32C229.874 247.789 230.119 248.365 230.119 249.048C230.119 249.325 230.055 249.656 229.927 250.04C229.82 250.403 229.618 250.872 229.319 251.448L226.951 255.8L224.999 254.744ZM67.4371 291V275.64H70.9571V291H67.4371ZM69.1971 272.824C68.5998 272.824 68.0985 272.621 67.6931 272.216C67.3091 271.811 67.1171 271.309 67.1171 270.712C67.1171 270.115 67.3091 269.613 67.6931 269.208C68.0985 268.803 68.5998 268.6 69.1971 268.6C69.8158 268.6 70.3171 268.803 70.7011 269.208C71.0851 269.613 71.2771 270.115 71.2771 270.712C71.2771 271.309 71.0851 271.811 70.7011 272.216C70.3171 272.621 69.8158 272.824 69.1971 272.824ZM85.4331 291V282.136C85.4331 281.112 85.1025 280.269 84.4411 279.608C83.8011 278.947 82.9691 278.616 81.9451 278.616C81.2625 278.616 80.6545 278.765 80.1211 279.064C79.5878 279.363 79.1718 279.779 78.8731 280.312C78.5745 280.845 78.4251 281.453 78.4251 282.136L77.0491 281.368C77.0491 280.195 77.3051 279.16 77.8171 278.264C78.3291 277.347 79.0331 276.632 79.9291 276.12C80.8465 275.587 81.8705 275.32 83.0011 275.32C84.1531 275.32 85.1771 275.619 86.0731 276.216C86.9691 276.792 87.6731 277.549 88.1851 278.488C88.6971 279.405 88.9531 280.365 88.9531 281.368V291H85.4331ZM74.9051 291V275.64H78.4251V291H74.9051ZM94.6786 291V269.24H98.1986V291H94.6786ZM90.9986 278.84V275.64H101.879V278.84H90.9986ZM111.135 291.32C109.599 291.32 108.212 290.979 106.975 290.296C105.759 289.592 104.788 288.632 104.063 287.416C103.359 286.2 103.007 284.835 103.007 283.32C103.007 281.805 103.359 280.451 104.063 279.256C104.767 278.04 105.716 277.08 106.911 276.376C108.127 275.672 109.471 275.32 110.943 275.32C112.372 275.32 113.631 275.651 114.719 276.312C115.828 276.973 116.692 277.88 117.311 279.032C117.951 280.184 118.271 281.496 118.271 282.968C118.271 283.224 118.25 283.491 118.207 283.768C118.186 284.024 118.143 284.312 118.079 284.632H105.471V281.752H116.255L114.943 282.904C114.9 281.965 114.719 281.176 114.399 280.536C114.079 279.896 113.62 279.405 113.023 279.064C112.447 278.723 111.732 278.552 110.879 278.552C109.983 278.552 109.204 278.744 108.543 279.128C107.882 279.512 107.37 280.056 107.007 280.76C106.644 281.443 106.463 282.264 106.463 283.224C106.463 284.184 106.655 285.027 107.039 285.752C107.423 286.477 107.967 287.043 108.671 287.448C109.375 287.832 110.186 288.024 111.103 288.024C111.892 288.024 112.618 287.885 113.279 287.608C113.962 287.331 114.538 286.925 115.007 286.392L117.247 288.664C116.5 289.539 115.594 290.2 114.527 290.648C113.46 291.096 112.33 291.32 111.135 291.32ZM121.093 291V267.96H124.613V291H121.093ZM128.53 291V267.96H132.05V291H128.53ZM136 291V275.64H139.52V291H136ZM137.76 272.824C137.162 272.824 136.661 272.621 136.256 272.216C135.872 271.811 135.68 271.309 135.68 270.712C135.68 270.115 135.872 269.613 136.256 269.208C136.661 268.803 137.162 268.6 137.76 268.6C138.378 268.6 138.88 268.803 139.264 269.208C139.648 269.613 139.84 270.115 139.84 270.712C139.84 271.309 139.648 271.811 139.264 272.216C138.88 272.621 138.378 272.824 137.76 272.824ZM149.868 297.72C148.246 297.72 146.828 297.421 145.612 296.824C144.396 296.248 143.414 295.427 142.668 294.36L144.972 292.056C145.59 292.824 146.294 293.4 147.084 293.784C147.873 294.168 148.822 294.36 149.932 294.36C151.318 294.36 152.417 293.997 153.228 293.272C154.038 292.568 154.444 291.597 154.444 290.36V286.584L155.052 283.192L154.444 279.768V275.64H157.964V290.36C157.964 291.832 157.622 293.112 156.94 294.2C156.257 295.309 155.308 296.173 154.092 296.792C152.876 297.411 151.468 297.72 149.868 297.72ZM149.708 290.68C148.342 290.68 147.105 290.349 145.996 289.688C144.908 289.005 144.044 288.077 143.404 286.904C142.785 285.731 142.476 284.419 142.476 282.968C142.476 281.517 142.785 280.216 143.404 279.064C144.044 277.912 144.908 277.005 145.996 276.344C147.105 275.661 148.342 275.32 149.708 275.32C150.924 275.32 151.99 275.565 152.908 276.056C153.825 276.547 154.54 277.229 155.052 278.104C155.564 278.957 155.82 279.96 155.82 281.112V284.888C155.82 286.019 155.553 287.021 155.02 287.896C154.508 288.771 153.793 289.453 152.876 289.944C151.958 290.435 150.902 290.68 149.708 290.68ZM150.412 287.352C151.265 287.352 152.012 287.171 152.652 286.808C153.292 286.445 153.782 285.944 154.124 285.304C154.486 284.643 154.668 283.875 154.668 283C154.668 282.125 154.486 281.368 154.124 280.728C153.782 280.067 153.292 279.555 152.652 279.192C152.012 278.829 151.265 278.648 150.412 278.648C149.558 278.648 148.801 278.829 148.14 279.192C147.5 279.555 146.998 280.067 146.636 280.728C146.273 281.368 146.092 282.125 146.092 283C146.092 283.853 146.273 284.611 146.636 285.272C146.998 285.933 147.5 286.445 148.14 286.808C148.801 287.171 149.558 287.352 150.412 287.352ZM169.01 291.32C167.474 291.32 166.087 290.979 164.85 290.296C163.634 289.592 162.663 288.632 161.938 287.416C161.234 286.2 160.882 284.835 160.882 283.32C160.882 281.805 161.234 280.451 161.938 279.256C162.642 278.04 163.591 277.08 164.786 276.376C166.002 275.672 167.346 275.32 168.818 275.32C170.247 275.32 171.506 275.651 172.594 276.312C173.703 276.973 174.567 277.88 175.186 279.032C175.826 280.184 176.146 281.496 176.146 282.968C176.146 283.224 176.125 283.491 176.082 283.768C176.061 284.024 176.018 284.312 175.954 284.632H163.346V281.752H174.13L172.818 282.904C172.775 281.965 172.594 281.176 172.274 280.536C171.954 279.896 171.495 279.405 170.898 279.064C170.322 278.723 169.607 278.552 168.754 278.552C167.858 278.552 167.079 278.744 166.418 279.128C165.757 279.512 165.245 280.056 164.882 280.76C164.519 281.443 164.338 282.264 164.338 283.224C164.338 284.184 164.53 285.027 164.914 285.752C165.298 286.477 165.842 287.043 166.546 287.448C167.25 287.832 168.061 288.024 168.978 288.024C169.767 288.024 170.493 287.885 171.154 287.608C171.837 287.331 172.413 286.925 172.882 286.392L175.122 288.664C174.375 289.539 173.469 290.2 172.402 290.648C171.335 291.096 170.205 291.32 169.01 291.32ZM189.496 291V282.136C189.496 281.112 189.165 280.269 188.504 279.608C187.864 278.947 187.032 278.616 186.008 278.616C185.325 278.616 184.717 278.765 184.184 279.064C183.65 279.363 183.234 279.779 182.936 280.312C182.637 280.845 182.488 281.453 182.488 282.136L181.112 281.368C181.112 280.195 181.368 279.16 181.88 278.264C182.392 277.347 183.096 276.632 183.992 276.12C184.909 275.587 185.933 275.32 187.064 275.32C188.216 275.32 189.24 275.619 190.136 276.216C191.032 276.792 191.736 277.549 192.248 278.488C192.76 279.405 193.016 280.365 193.016 281.368V291H189.496ZM178.968 291V275.64H182.488V291H178.968ZM198.741 291V269.24H202.261V291H198.741ZM195.061 278.84V275.64H205.941V278.84H195.061ZM49.5041 331.32C48.3308 331.32 47.2855 331.075 46.3681 330.584C45.4508 330.072 44.7255 329.379 44.1921 328.504C43.6801 327.629 43.4241 326.637 43.4241 325.528V321.112C43.4241 320.003 43.6908 319.011 44.2241 318.136C44.7575 317.261 45.4828 316.579 46.4001 316.088C47.3175 315.576 48.3521 315.32 49.5041 315.32C50.8908 315.32 52.1388 315.683 53.2481 316.408C54.3788 317.112 55.2641 318.072 55.9041 319.288C56.5655 320.483 56.8961 321.837 56.8961 323.352C56.8961 324.845 56.5655 326.2 55.9041 327.416C55.2641 328.611 54.3788 329.56 53.2481 330.264C52.1388 330.968 50.8908 331.32 49.5041 331.32ZM41.2801 337.4V315.64H44.8001V319.768L44.1921 323.512L44.8001 327.224V337.4H41.2801ZM48.9281 327.992C49.7815 327.992 50.5281 327.8 51.1681 327.416C51.8295 327.011 52.3415 326.456 52.7041 325.752C53.0881 325.048 53.2801 324.237 53.2801 323.32C53.2801 322.403 53.0881 321.592 52.7041 320.888C52.3415 320.184 51.8295 319.64 51.1681 319.256C50.5281 318.851 49.7815 318.648 48.9281 318.648C48.0748 318.648 47.3175 318.851 46.6561 319.256C45.9948 319.64 45.4828 320.184 45.1201 320.888C44.7575 321.592 44.5761 322.403 44.5761 323.32C44.5761 324.237 44.7575 325.048 45.1201 325.752C45.4828 326.456 45.9948 327.011 46.6561 327.416C47.3175 327.8 48.0748 327.992 48.9281 327.992ZM59.8426 331V307.96H63.3626V331H59.8426ZM73.7121 331.32C72.3255 331.32 71.0668 330.968 69.9361 330.264C68.8268 329.56 67.9415 328.611 67.2801 327.416C66.6401 326.2 66.3201 324.845 66.3201 323.352C66.3201 321.837 66.6401 320.483 67.2801 319.288C67.9415 318.072 68.8268 317.112 69.9361 316.408C71.0668 315.683 72.3255 315.32 73.7121 315.32C74.8855 315.32 75.9201 315.576 76.8161 316.088C77.7335 316.579 78.4588 317.261 78.9921 318.136C79.5255 319.011 79.7921 320.003 79.7921 321.112V325.528C79.7921 326.637 79.5255 327.629 78.9921 328.504C78.4801 329.379 77.7655 330.072 76.8481 330.584C75.9308 331.075 74.8855 331.32 73.7121 331.32ZM74.2881 327.992C75.5895 327.992 76.6348 327.555 77.4241 326.68C78.2348 325.805 78.6401 324.685 78.6401 323.32C78.6401 322.403 78.4588 321.592 78.0961 320.888C77.7335 320.184 77.2215 319.64 76.5601 319.256C75.9201 318.851 75.1628 318.648 74.2881 318.648C73.4348 318.648 72.6775 318.851 72.0161 319.256C71.3761 319.64 70.8641 320.184 70.4801 320.888C70.1175 321.592 69.9361 322.403 69.9361 323.32C69.9361 324.237 70.1175 325.048 70.4801 325.752C70.8641 326.456 71.3761 327.011 72.0161 327.416C72.6775 327.8 73.4348 327.992 74.2881 327.992ZM78.4161 331V326.872L79.0241 323.128L78.4161 319.416V315.64H81.9361V331H78.4161ZM96.3706 331V322.136C96.3706 321.112 96.04 320.269 95.3786 319.608C94.7386 318.947 93.9066 318.616 92.8826 318.616C92.2 318.616 91.592 318.765 91.0586 319.064C90.5253 319.363 90.1093 319.779 89.8106 320.312C89.512 320.845 89.3626 321.453 89.3626 322.136L87.9866 321.368C87.9866 320.195 88.2426 319.16 88.7546 318.264C89.2666 317.347 89.9706 316.632 90.8666 316.12C91.784 315.587 92.808 315.32 93.9386 315.32C95.0906 315.32 96.1146 315.619 97.0106 316.216C97.9066 316.792 98.6106 317.549 99.1226 318.488C99.6346 319.405 99.8906 320.365 99.8906 321.368V331H96.3706ZM85.8426 331V315.64H89.3626V331H85.8426ZM113.996 331V322.136C113.996 321.112 113.665 320.269 113.004 319.608C112.364 318.947 111.532 318.616 110.508 318.616C109.825 318.616 109.217 318.765 108.684 319.064C108.15 319.363 107.734 319.779 107.436 320.312C107.137 320.845 106.988 321.453 106.988 322.136L105.612 321.368C105.612 320.195 105.868 319.16 106.38 318.264C106.892 317.347 107.596 316.632 108.492 316.12C109.409 315.587 110.433 315.32 111.564 315.32C112.716 315.32 113.74 315.619 114.636 316.216C115.532 316.792 116.236 317.549 116.748 318.488C117.26 319.405 117.516 320.365 117.516 321.368V331H113.996ZM103.468 331V315.64H106.988V331H103.468ZM121.125 331V315.64H124.645V331H121.125ZM122.885 312.824C122.287 312.824 121.786 312.621 121.381 312.216C120.997 311.811 120.805 311.309 120.805 310.712C120.805 310.115 120.997 309.613 121.381 309.208C121.786 308.803 122.287 308.6 122.885 308.6C123.503 308.6 124.005 308.803 124.389 309.208C124.773 309.613 124.965 310.115 124.965 310.712C124.965 311.309 124.773 311.811 124.389 312.216C124.005 312.621 123.503 312.824 122.885 312.824ZM139.121 331V322.136C139.121 321.112 138.79 320.269 138.129 319.608C137.489 318.947 136.657 318.616 135.633 318.616C134.95 318.616 134.342 318.765 133.809 319.064C133.275 319.363 132.859 319.779 132.561 320.312C132.262 320.845 132.113 321.453 132.113 322.136L130.737 321.368C130.737 320.195 130.993 319.16 131.505 318.264C132.017 317.347 132.721 316.632 133.617 316.12C134.534 315.587 135.558 315.32 136.689 315.32C137.841 315.32 138.865 315.619 139.761 316.216C140.657 316.792 141.361 317.549 141.873 318.488C142.385 319.405 142.641 320.365 142.641 321.368V331H139.121ZM128.593 331V315.64H132.113V331H128.593ZM152.618 337.72C150.996 337.72 149.578 337.421 148.362 336.824C147.146 336.248 146.164 335.427 145.418 334.36L147.722 332.056C148.34 332.824 149.044 333.4 149.834 333.784C150.623 334.168 151.572 334.36 152.682 334.36C154.068 334.36 155.167 333.997 155.978 333.272C156.788 332.568 157.194 331.597 157.194 330.36V326.584L157.802 323.192L157.194 319.768V315.64H160.714V330.36C160.714 331.832 160.372 333.112 159.69 334.2C159.007 335.309 158.058 336.173 156.842 336.792C155.626 337.411 154.218 337.72 152.618 337.72ZM152.458 330.68C151.092 330.68 149.855 330.349 148.746 329.688C147.658 329.005 146.794 328.077 146.154 326.904C145.535 325.731 145.226 324.419 145.226 322.968C145.226 321.517 145.535 320.216 146.154 319.064C146.794 317.912 147.658 317.005 148.746 316.344C149.855 315.661 151.092 315.32 152.458 315.32C153.674 315.32 154.74 315.565 155.658 316.056C156.575 316.547 157.29 317.229 157.802 318.104C158.314 318.957 158.57 319.96 158.57 321.112V324.888C158.57 326.019 158.303 327.021 157.77 327.896C157.258 328.771 156.543 329.453 155.626 329.944C154.708 330.435 153.652 330.68 152.458 330.68ZM153.162 327.352C154.015 327.352 154.762 327.171 155.402 326.808C156.042 326.445 156.532 325.944 156.874 325.304C157.236 324.643 157.418 323.875 157.418 323C157.418 322.125 157.236 321.368 156.874 320.728C156.532 320.067 156.042 319.555 155.402 319.192C154.762 318.829 154.015 318.648 153.162 318.648C152.308 318.648 151.551 318.829 150.89 319.192C150.25 319.555 149.748 320.067 149.386 320.728C149.023 321.368 148.842 322.125 148.842 323C148.842 323.853 149.023 324.611 149.386 325.272C149.748 325.933 150.25 326.445 150.89 326.808C151.551 327.171 152.308 327.352 153.162 327.352ZM164.624 334.744L166.8 330.68L167.984 330.36C167.856 330.616 167.707 330.829 167.536 331C167.365 331.171 167.163 331.256 166.928 331.256C166.437 331.256 165.979 331.053 165.552 330.648C165.147 330.221 164.944 329.688 164.944 329.048C164.944 328.365 165.168 327.789 165.616 327.32C166.085 326.829 166.661 326.584 167.344 326.584C167.984 326.584 168.539 326.829 169.008 327.32C169.499 327.789 169.744 328.365 169.744 329.048C169.744 329.325 169.68 329.656 169.552 330.04C169.445 330.403 169.243 330.872 168.944 331.448L166.576 335.8L164.624 334.744ZM186.306 331.32C184.919 331.32 183.661 330.968 182.53 330.264C181.421 329.56 180.535 328.611 179.874 327.416C179.234 326.2 178.914 324.845 178.914 323.352C178.914 321.837 179.234 320.483 179.874 319.288C180.535 318.072 181.421 317.112 182.53 316.408C183.661 315.683 184.919 315.32 186.306 315.32C187.479 315.32 188.514 315.576 189.41 316.088C190.327 316.579 191.053 317.261 191.586 318.136C192.119 319.011 192.386 320.003 192.386 321.112V325.528C192.386 326.637 192.119 327.629 191.586 328.504C191.074 329.379 190.359 330.072 189.442 330.584C188.525 331.075 187.479 331.32 186.306 331.32ZM186.882 327.992C188.183 327.992 189.229 327.555 190.018 326.68C190.829 325.805 191.234 324.685 191.234 323.32C191.234 322.403 191.053 321.592 190.69 320.888C190.327 320.184 189.815 319.64 189.154 319.256C188.514 318.851 187.757 318.648 186.882 318.648C186.029 318.648 185.271 318.851 184.61 319.256C183.97 319.64 183.458 320.184 183.074 320.888C182.711 321.592 182.53 322.403 182.53 323.32C182.53 324.237 182.711 325.048 183.074 325.752C183.458 326.456 183.97 327.011 184.61 327.416C185.271 327.8 186.029 327.992 186.882 327.992ZM191.01 331V326.872L191.618 323.128L191.01 319.416V315.64H194.53V331H191.01ZM208.964 331V322.136C208.964 321.112 208.634 320.269 207.972 319.608C207.332 318.947 206.5 318.616 205.476 318.616C204.794 318.616 204.186 318.765 203.652 319.064C203.119 319.363 202.703 319.779 202.404 320.312C202.106 320.845 201.956 321.453 201.956 322.136L200.58 321.368C200.58 320.195 200.836 319.16 201.348 318.264C201.86 317.347 202.564 316.632 203.46 316.12C204.378 315.587 205.402 315.32 206.532 315.32C207.684 315.32 208.708 315.619 209.604 316.216C210.5 316.792 211.204 317.549 211.716 318.488C212.228 319.405 212.484 320.365 212.484 321.368V331H208.964ZM198.436 331V315.64H201.956V331H198.436ZM222.493 331.32C221.107 331.32 219.848 330.968 218.717 330.264C217.608 329.56 216.723 328.611 216.061 327.416C215.421 326.2 215.101 324.845 215.101 323.352C215.101 321.837 215.421 320.483 216.061 319.288C216.723 318.072 217.608 317.112 218.717 316.408C219.848 315.683 221.107 315.32 222.493 315.32C223.667 315.32 224.701 315.576 225.597 316.088C226.515 316.579 227.24 317.261 227.773 318.136C228.307 319.011 228.573 320.003 228.573 321.112V325.528C228.573 326.637 228.307 327.629 227.773 328.504C227.261 329.379 226.547 330.072 225.629 330.584C224.712 331.075 223.667 331.32 222.493 331.32ZM223.069 327.992C223.944 327.992 224.701 327.8 225.341 327.416C226.003 327.011 226.515 326.456 226.877 325.752C227.24 325.048 227.421 324.237 227.421 323.32C227.421 322.403 227.24 321.592 226.877 320.888C226.515 320.184 226.003 319.64 225.341 319.256C224.701 318.851 223.944 318.648 223.069 318.648C222.216 318.648 221.459 318.851 220.797 319.256C220.157 319.64 219.645 320.184 219.261 320.888C218.899 321.592 218.717 322.403 218.717 323.32C218.717 324.237 218.899 325.048 219.261 325.752C219.645 326.456 220.157 327.011 220.797 327.416C221.459 327.8 222.216 327.992 223.069 327.992ZM230.717 331H227.197V326.872L227.805 323.128L227.197 319.416V307.96H230.717V331ZM40.3765 371V353.624C40.3765 352.451 40.6325 351.416 41.1445 350.52C41.6778 349.624 42.4032 348.92 43.3205 348.408C44.2592 347.896 45.3365 347.64 46.5525 347.64C47.4912 347.64 48.2912 347.8 48.9525 348.12C49.6138 348.44 50.2325 348.899 50.8085 349.496L48.5365 351.768C48.2805 351.512 48.0032 351.309 47.7045 351.16C47.4058 351.011 47.0218 350.936 46.5525 350.936C45.6992 350.936 45.0378 351.171 44.5685 351.64C44.1205 352.088 43.8965 352.739 43.8965 353.592V371H40.3765ZM36.6965 358.84V355.64H48.5365V358.84H36.6965ZM57.4295 371.32C55.9362 371.32 54.5815 370.968 53.3655 370.264C52.1495 369.539 51.1788 368.568 50.4535 367.352C49.7495 366.136 49.3975 364.781 49.3975 363.288C49.3975 361.795 49.7495 360.451 50.4535 359.256C51.1788 358.061 52.1495 357.112 53.3655 356.408C54.5815 355.683 55.9362 355.32 57.4295 355.32C58.9442 355.32 60.3095 355.672 61.5255 356.376C62.7415 357.08 63.7015 358.04 64.4055 359.256C65.1308 360.451 65.4935 361.795 65.4935 363.288C65.4935 364.781 65.1308 366.136 64.4055 367.352C63.7015 368.568 62.7415 369.539 61.5255 370.264C60.3095 370.968 58.9442 371.32 57.4295 371.32ZM57.4295 367.928C58.3042 367.928 59.0722 367.736 59.7335 367.352C60.4162 366.947 60.9388 366.392 61.3015 365.688C61.6855 364.984 61.8775 364.184 61.8775 363.288C61.8775 362.392 61.6855 361.603 61.3015 360.92C60.9175 360.237 60.3948 359.704 59.7335 359.32C59.0722 358.915 58.3042 358.712 57.4295 358.712C56.5762 358.712 55.8082 358.915 55.1255 359.32C54.4642 359.704 53.9415 360.237 53.5575 360.92C53.1948 361.603 53.0135 362.392 53.0135 363.288C53.0135 364.184 53.1948 364.984 53.5575 365.688C53.9415 366.392 54.4642 366.947 55.1255 367.352C55.8082 367.736 56.5762 367.928 57.4295 367.928ZM75.4928 371.32C73.9781 371.32 72.6021 370.968 71.3648 370.264C70.1488 369.56 69.1888 368.6 68.4848 367.384C67.7808 366.168 67.4288 364.813 67.4288 363.32C67.4288 361.805 67.7808 360.451 68.4848 359.256C69.1888 358.04 70.1488 357.08 71.3648 356.376C72.6021 355.672 73.9781 355.32 75.4928 355.32C76.6874 355.32 77.7968 355.555 78.8208 356.024C79.8661 356.472 80.7514 357.123 81.4768 357.976L79.1728 360.312C78.7248 359.779 78.1808 359.384 77.5408 359.128C76.9221 358.851 76.2394 358.712 75.4928 358.712C74.6181 358.712 73.8394 358.915 73.1568 359.32C72.4954 359.704 71.9728 360.237 71.5888 360.92C71.2261 361.603 71.0448 362.403 71.0448 363.32C71.0448 364.216 71.2261 365.016 71.5888 365.72C71.9728 366.403 72.4954 366.947 73.1568 367.352C73.8394 367.736 74.6181 367.928 75.4928 367.928C76.2394 367.928 76.9221 367.8 77.5408 367.544C78.1808 367.267 78.7248 366.861 79.1728 366.328L81.4768 368.664C80.7514 369.517 79.8661 370.179 78.8208 370.648C77.7968 371.096 76.6874 371.32 75.4928 371.32ZM90.3185 371.32C89.0172 371.32 87.8545 371.032 86.8305 370.456C85.8278 369.88 85.0385 369.091 84.4625 368.088C83.9078 367.064 83.6305 365.891 83.6305 364.568V355.64H87.1505V364.408C87.1505 365.155 87.2678 365.795 87.5025 366.328C87.7585 366.84 88.1212 367.235 88.5905 367.512C89.0812 367.789 89.6572 367.928 90.3185 367.928C91.3425 367.928 92.1212 367.629 92.6545 367.032C93.2092 366.413 93.4865 365.539 93.4865 364.408V355.64H97.0065V364.568C97.0065 365.912 96.7185 367.096 96.1425 368.12C95.5878 369.123 94.8092 369.912 93.8065 370.488C92.8038 371.043 91.6412 371.32 90.3185 371.32ZM105.57 371.32C104.716 371.32 103.895 371.213 103.106 371C102.316 370.765 101.591 370.445 100.93 370.04C100.268 369.613 99.6924 369.101 99.2018 368.504L101.442 366.264C101.975 366.883 102.583 367.352 103.266 367.672C103.97 367.971 104.759 368.12 105.634 368.12C106.423 368.12 107.02 368.003 107.426 367.768C107.831 367.533 108.034 367.192 108.034 366.744C108.034 366.275 107.842 365.912 107.458 365.656C107.074 365.4 106.572 365.187 105.954 365.016C105.356 364.824 104.716 364.632 104.034 364.44C103.372 364.248 102.732 363.992 102.114 363.672C101.516 363.331 101.026 362.872 100.642 362.296C100.258 361.72 100.066 360.973 100.066 360.056C100.066 359.075 100.29 358.232 100.738 357.528C101.207 356.824 101.858 356.28 102.69 355.896C103.543 355.512 104.556 355.32 105.73 355.32C106.967 355.32 108.055 355.544 108.994 355.992C109.954 356.419 110.754 357.069 111.394 357.944L109.154 360.184C108.706 359.629 108.194 359.213 107.618 358.936C107.042 358.659 106.38 358.52 105.634 358.52C104.93 358.52 104.386 358.627 104.002 358.84C103.618 359.053 103.426 359.363 103.426 359.768C103.426 360.195 103.618 360.525 104.002 360.76C104.386 360.995 104.876 361.197 105.474 361.368C106.092 361.539 106.732 361.731 107.394 361.944C108.076 362.136 108.716 362.413 109.314 362.776C109.932 363.117 110.434 363.587 110.818 364.184C111.202 364.76 111.394 365.517 111.394 366.456C111.394 367.949 110.871 369.133 109.826 370.008C108.78 370.883 107.362 371.32 105.57 371.32ZM121.432 371.32C119.896 371.32 118.509 370.979 117.272 370.296C116.056 369.592 115.085 368.632 114.36 367.416C113.656 366.2 113.304 364.835 113.304 363.32C113.304 361.805 113.656 360.451 114.36 359.256C115.064 358.04 116.013 357.08 117.208 356.376C118.424 355.672 119.768 355.32 121.24 355.32C122.669 355.32 123.928 355.651 125.016 356.312C126.125 356.973 126.989 357.88 127.608 359.032C128.248 360.184 128.568 361.496 128.568 362.968C128.568 363.224 128.546 363.491 128.504 363.768C128.482 364.024 128.44 364.312 128.376 364.632H115.768V361.752H126.552L125.24 362.904C125.197 361.965 125.016 361.176 124.696 360.536C124.376 359.896 123.917 359.405 123.32 359.064C122.744 358.723 122.029 358.552 121.176 358.552C120.28 358.552 119.501 358.744 118.84 359.128C118.178 359.512 117.666 360.056 117.304 360.76C116.941 361.443 116.76 362.264 116.76 363.224C116.76 364.184 116.952 365.027 117.336 365.752C117.72 366.477 118.264 367.043 118.968 367.448C119.672 367.832 120.482 368.024 121.4 368.024C122.189 368.024 122.914 367.885 123.576 367.608C124.258 367.331 124.834 366.925 125.304 366.392L127.544 368.664C126.797 369.539 125.89 370.2 124.824 370.648C123.757 371.096 122.626 371.32 121.432 371.32ZM137.822 371.32C136.435 371.32 135.176 370.968 134.046 370.264C132.936 369.56 132.051 368.611 131.39 367.416C130.75 366.2 130.43 364.845 130.43 363.352C130.43 361.837 130.75 360.483 131.39 359.288C132.051 358.072 132.936 357.112 134.046 356.408C135.176 355.683 136.435 355.32 137.822 355.32C138.995 355.32 140.03 355.576 140.926 356.088C141.843 356.579 142.568 357.261 143.102 358.136C143.635 359.011 143.902 360.003 143.902 361.112V365.528C143.902 366.637 143.635 367.629 143.102 368.504C142.59 369.379 141.875 370.072 140.958 370.584C140.04 371.075 138.995 371.32 137.822 371.32ZM138.398 367.992C139.272 367.992 140.03 367.8 140.67 367.416C141.331 367.011 141.843 366.456 142.206 365.752C142.568 365.048 142.75 364.237 142.75 363.32C142.75 362.403 142.568 361.592 142.206 360.888C141.843 360.184 141.331 359.64 140.67 359.256C140.03 358.851 139.272 358.648 138.398 358.648C137.544 358.648 136.787 358.851 136.126 359.256C135.486 359.64 134.974 360.184 134.59 360.888C134.227 361.592 134.046 362.403 134.046 363.32C134.046 364.237 134.227 365.048 134.59 365.752C134.974 366.456 135.486 367.011 136.126 367.416C136.787 367.8 137.544 367.992 138.398 367.992ZM146.046 371H142.526V366.872L143.134 363.128L142.526 359.416V347.96H146.046V371ZM163.494 371.32C161.958 371.32 160.572 370.979 159.334 370.296C158.118 369.592 157.148 368.632 156.422 367.416C155.718 366.2 155.366 364.835 155.366 363.32C155.366 361.805 155.718 360.451 156.422 359.256C157.126 358.04 158.076 357.08 159.27 356.376C160.486 355.672 161.83 355.32 163.302 355.32C164.732 355.32 165.99 355.651 167.078 356.312C168.188 356.973 169.052 357.88 169.67 359.032C170.31 360.184 170.63 361.496 170.63 362.968C170.63 363.224 170.609 363.491 170.566 363.768C170.545 364.024 170.502 364.312 170.438 364.632H157.83V361.752H168.614L167.302 362.904C167.26 361.965 167.078 361.176 166.758 360.536C166.438 359.896 165.98 359.405 165.382 359.064C164.806 358.723 164.092 358.552 163.238 358.552C162.342 358.552 161.564 358.744 160.902 359.128C160.241 359.512 159.729 360.056 159.366 360.76C159.004 361.443 158.822 362.264 158.822 363.224C158.822 364.184 159.014 365.027 159.398 365.752C159.782 366.477 160.326 367.043 161.03 367.448C161.734 367.832 162.545 368.024 163.462 368.024C164.252 368.024 164.977 367.885 165.638 367.608C166.321 367.331 166.897 366.925 167.366 366.392L169.606 368.664C168.86 369.539 167.953 370.2 166.886 370.648C165.82 371.096 164.689 371.32 163.494 371.32ZM175.158 371V354.328C175.158 353.091 175.424 352.003 175.958 351.064C176.491 350.104 177.238 349.347 178.198 348.792C179.179 348.237 180.299 347.96 181.558 347.96C182.838 347.96 183.872 348.237 184.662 348.792C185.472 349.325 186.059 350.072 186.422 351.032C186.806 351.992 186.998 353.08 186.998 354.296H184.438C184.438 353.315 184.192 352.547 183.702 351.992C183.232 351.437 182.518 351.16 181.558 351.16C180.598 351.16 179.872 351.437 179.382 351.992C178.912 352.525 178.678 353.261 178.678 354.2V371H175.158ZM171.478 358.84V355.64H192.598V358.84H171.478ZM184.438 371V353.624C184.438 352.451 184.694 351.416 185.206 350.52C185.739 349.624 186.464 348.92 187.382 348.408C188.32 347.896 189.398 347.64 190.614 347.64C191.552 347.64 192.352 347.8 193.014 348.12C193.675 348.44 194.294 348.899 194.87 349.496L192.598 351.768C192.342 351.512 192.064 351.309 191.766 351.16C191.467 351.011 191.083 350.936 190.614 350.936C189.76 350.936 189.099 351.171 188.63 351.64C188.182 352.088 187.958 352.739 187.958 353.592V371H184.438ZM201.492 371.32C199.999 371.32 198.644 370.968 197.428 370.264C196.212 369.539 195.241 368.568 194.516 367.352C193.812 366.136 193.46 364.781 193.46 363.288C193.46 361.795 193.812 360.451 194.516 359.256C195.241 358.061 196.212 357.112 197.428 356.408C198.644 355.683 199.999 355.32 201.492 355.32C203.007 355.32 204.372 355.672 205.588 356.376C206.804 357.08 207.764 358.04 208.468 359.256C209.193 360.451 209.556 361.795 209.556 363.288C209.556 364.781 209.193 366.136 208.468 367.352C207.764 368.568 206.804 369.539 205.588 370.264C204.372 370.968 203.007 371.32 201.492 371.32ZM201.492 367.928C202.367 367.928 203.135 367.736 203.796 367.352C204.479 366.947 205.001 366.392 205.364 365.688C205.748 364.984 205.94 364.184 205.94 363.288C205.94 362.392 205.748 361.603 205.364 360.92C204.98 360.237 204.457 359.704 203.796 359.32C203.135 358.915 202.367 358.712 201.492 358.712C200.639 358.712 199.871 358.915 199.188 359.32C198.527 359.704 198.004 360.237 197.62 360.92C197.257 361.603 197.076 362.392 197.076 363.288C197.076 364.184 197.257 364.984 197.62 365.688C198.004 366.392 198.527 366.947 199.188 367.352C199.871 367.736 200.639 367.928 201.492 367.928ZM212.483 371V355.64H216.003V371H212.483ZM216.003 362.456L214.787 361.848C214.787 359.907 215.214 358.339 216.067 357.144C216.942 355.928 218.254 355.32 220.003 355.32C220.771 355.32 221.465 355.459 222.083 355.736C222.702 356.013 223.278 356.461 223.811 357.08L221.507 359.448C221.23 359.149 220.921 358.936 220.579 358.808C220.238 358.68 219.843 358.616 219.395 358.616C218.414 358.616 217.603 358.925 216.963 359.544C216.323 360.163 216.003 361.133 216.003 362.456ZM227.882 371V349.24H231.402V371H227.882ZM224.202 358.84V355.64H235.082V358.84H224.202Z" fill="black"/>
<path d="M248.403 347.091C253.766 354.738 243.966 362.898 247.847 363.526C251.728 364.154 254.659 352.992 256.046 344.422C257.433 335.852 255.221 329.566 251.341 328.938C247.46 328.31 239.371 334.212 248.403 347.091Z" fill="black"/>
<path d="M255.43 348.228C260.793 355.875 250.993 364.035 254.874 364.663C258.755 365.291 261.686 354.129 263.073 345.559C264.459 336.989 262.248 330.703 258.367 330.075C254.487 329.447 246.398 335.349 255.43 348.228Z" fill="#F0AC5B"/>
<path d="M25.4141 19.5636C21.0132 11.3626 31.5226 4.18726 27.7911 3.16428C24.0595 2.1413 19.9438 13.0196 17.63 21.4598C15.3161 29.9 16.7816 36.418 20.5131 37.441C24.2447 38.464 32.8266 33.3763 25.4141 19.5636Z" fill="black"/>
<path d="M18.6576 17.7113C14.2566 9.51032 24.766 2.33496 21.0345 1.31198C17.303 0.289 13.1872 11.1673 10.8734 19.6075C8.55954 28.0477 10.025 34.5657 13.7565 35.5887C17.4881 36.6117 26.07 31.524 18.6576 17.7113Z" fill="#F0AC5B"/>
</svg>
